<svg width="217" height="243" viewBox="0 0 217 243" fill="none" xmlns="http://www.w3.org/2000/svg">
<g clip-path="url(#clip0_192_803)">
<path d="M21.6911 120.825C15.2142 138.414 11.8382 157.152 11.7713 175.905C11.7713 177.815 11.7862 179.748 11.2954 181.591C10.6187 184.106 9.03483 186.255 7.64428 188.449C3.67341 194.703 1.06334 201.815 0.0445996 209.165C-0.290024 211.59 1.18976 213.993 3.55443 214.605C6.93042 215.486 9.00509 211.874 10.1651 208.874C12.4257 203.031 14.6937 197.188 16.9543 191.345C16.1289 193.904 16.1289 196.718 16.8948 199.3C17.222 200.412 18.7984 200.345 19.0215 199.21C19.9064 194.666 20.0031 189.964 19.2966 185.39C18.843 182.464 18.0697 179.599 17.7425 176.659C16.3445 164.144 23.0667 152.286 30.4433 141.697C27.0302 134.973 24.3457 127.869 21.6985 120.817L21.6911 120.825Z" fill="#006E7F"/>
<path d="M155.28 111.243C161.103 119.437 166.063 128.25 170.063 137.473C177.7 126.205 181.084 112.108 179.396 98.5865C179.306 97.8701 179.187 97.1164 178.741 96.5567C178.161 95.8254 177.18 95.5866 176.28 95.3478C173.194 94.5269 170.242 93.2061 167.565 91.4673C166.643 90.8628 165.646 90.0345 165.847 88.848C165.988 88.042 166.672 87.445 167.468 87.251C168.866 86.9152 170.145 87.5868 171.342 88.2435C173.93 89.6539 176.51 91.0643 179.098 92.4747L172.465 76.7439C172.019 75.6767 171.759 74.5275 171.841 73.3783C172.324 66.192 183.582 67.4979 187.33 67.3785C189.211 67.3188 191.107 67.7068 192.691 68.7292C198.856 72.7067 195.666 79.8035 193.234 85.3854C190.089 92.6091 188.46 100.392 186.847 108.109L178.079 150.182C177.916 150.98 177.239 151.57 176.429 151.63C175.782 151.674 175.142 151.734 174.518 151.816C173.692 151.921 172.919 151.458 172.599 150.697C170.755 146.264 166.791 142.951 163.007 139.899C160.508 137.876 158.002 135.861 155.503 133.839C155.057 133.481 154.604 133.108 154.336 132.6C153.987 131.921 154.031 131.108 154.083 130.347C154.522 124.429 155.072 118.519 155.273 111.258L155.28 111.243Z" fill="#006E7F"/>
<path d="M51.6065 178.733C49.212 197.919 45.2709 216.919 39.8351 235.47C35.2694 235.97 30.7036 236.463 26.1379 236.963C24.4201 237.149 22.628 237.366 21.1854 238.321C19.7428 239.276 18.8059 241.239 19.5644 242.798C27.811 243.41 36.1691 242.515 44.1109 240.172C50.0598 222.269 57.1761 204.755 65.4004 187.785C65.7202 187.128 66.0325 186.33 65.6607 185.711C65.3781 185.248 64.8055 185.061 64.285 184.912C59.6226 183.576 54.9676 182.241 51.599 178.733H51.6065Z" fill="#006E7F"/>
<path d="M114.508 178.151C117.409 197.852 120.309 217.56 123.484 237.582C127.99 235.291 133.091 234.187 138.133 234.403C138.735 234.433 139.39 234.493 139.828 234.911C140.237 235.291 140.371 235.896 140.289 236.448C139.992 238.44 137.56 239.164 135.575 239.463C129.648 240.351 123.722 241.246 117.825 241.858C113.319 223.157 106.953 204.911 98.8555 187.479C104.879 183.494 111.616 180.606 114.508 178.159V178.151Z" fill="#006E7F"/>
<path d="M20.0475 107.325C20.3077 123.071 23.535 138.764 29.5136 153.413C34.7486 166.234 42.5342 178.688 54.5881 186.017C66.0918 193.009 80.3393 193.404 93.8879 192.449C114.196 191.016 128.823 187.36 143.382 161.98C153.139 144.981 159.11 125.392 155.109 106.333C154.789 104.795 154.373 103.198 153.28 102.042C152.194 100.9 150.595 100.37 149.056 99.8999C107.332 87.2062 60.775 90.0793 21.0439 107.788C20.1962 108.168 19.7426 109.243 18.8205 109.385C17.8985 109.526 18.2851 107.556 20.0475 107.325Z" fill="#468B97"/>
<path d="M20.3599 114.84C20.4417 115.586 20.5309 116.34 20.6276 117.108C20.754 118.108 20.8953 119.086 21.0365 120.041C25.5651 119.474 32.4881 118.586 40.9207 117.385C74.8961 112.541 73.3718 111.183 84.7044 110.556C99.1899 109.75 111.526 111.624 136.214 115.355C144.781 116.653 151.882 117.944 156.842 118.899C157.764 115.959 157.704 113.519 156.916 111.497C153.183 101.9 129.789 93.1091 20.3599 114.832V114.84Z" fill="#006E7F"/>
<path d="M173.432 56.0281C166.129 61.9831 162.709 72.3485 165.029 81.5049" stroke="#404040" stroke-miterlimit="10"/>
<path d="M27.0747 59.6325C27.3127 50.2671 25.7511 40.9092 26.2196 31.5438C26.688 22.1859 29.5955 12.3205 36.8829 6.46248C44.438 0.388043 54.9154 -0.111941 64.5972 0.0149208C84.1839 0.276107 103.748 2.02232 123.075 5.22372C132.31 6.75352 141.873 8.78331 149.257 14.5592C152.276 16.9174 154.975 20.1486 155.221 23.9769C155.474 27.8051 152.254 31.9244 148.469 31.3871C155.399 39.4913 159.474 50.0134 159.809 60.6847C155.295 63.3413 149.882 63.8264 144.669 64.2144C116.62 66.3114 88.4968 67.4606 60.3661 67.6472C49.8663 67.7143 39.2402 67.6397 29.0676 65.0129C27.2755 64.5503 25.1116 62.5429 27.0673 59.6176L27.0747 59.6325Z" fill="#B22727"/>
<path d="M148.476 31.3947C143.345 30.9021 138.214 30.4171 133.083 29.9246C136.132 30.7902 142.624 33.1036 148.29 39.1929C156.009 47.4837 156.976 57.17 157.162 60.0878C158.009 59.9087 158.85 59.7222 159.697 59.5431C159.526 56.2148 158.946 51.8343 157.303 46.9614C154.864 39.7078 151.131 34.5214 148.476 31.3947Z" fill="#740600"/>
<path d="M15.3777 59.8041C12.6561 77.714 12.4628 96.1612 14.7977 114.153C14.9018 114.974 15.0505 115.877 15.5934 116.399C16.1585 116.937 16.9542 116.892 17.6755 116.817C48.394 113.593 78.9414 104.586 109.697 107.392C125.967 108.877 141.962 113.661 158.262 114.586C159.14 114.638 160.077 114.653 160.82 114.086C161.653 113.444 162.017 112.22 162.3 111.079C165.996 96.4149 166.97 80.7811 165.126 65.6323C164.836 63.2667 164.375 60.6847 162.791 59.222C161.534 58.0579 159.854 57.8713 158.277 57.7295C119.282 54.155 80.094 50.5805 41.1066 54.2595C34.1241 54.9162 27.1342 55.8117 20.3153 57.7221C17.9209 58.3937 15.4818 59.1698 15.3852 59.8116L15.3777 59.8041Z" fill="#9F2727"/>
<path d="M27.4688 60.2295C26.6211 67.3263 26.0039 75.0872 25.7957 83.4377C25.5503 93.3404 25.9147 102.474 26.6137 110.691" stroke="#740600" stroke-width="0.62" stroke-miterlimit="10" stroke-linecap="round"/>
<path d="M41.4264 60.4907C41.3966 67.3487 41.3966 74.2515 41.4264 81.2065C41.4635 90.1913 41.5602 99.094 41.7015 107.915" stroke="#740600" stroke-width="0.62" stroke-miterlimit="10" stroke-linecap="round"/>
<path d="M57.9939 58.3115V105.735" stroke="#740600" stroke-width="0.62" stroke-miterlimit="10" stroke-linecap="round"/>
<path d="M72.658 57.2222C73.3793 64.5354 73.8775 72.468 74.0188 80.9304C74.1526 89.1764 73.9295 96.9224 73.4759 104.094" stroke="#740600" stroke-width="0.62" stroke-miterlimit="10" stroke-linecap="round"/>
<path d="M89.2181 57.2222C88.4745 64.2294 87.9689 71.8859 87.8573 80.117C87.7681 87.1914 87.9837 93.8404 88.4002 100.012" stroke="#740600" stroke-width="0.62" stroke-miterlimit="10" stroke-linecap="round"/>
<path d="M105.786 58.8564C106.262 65.5652 106.44 73.065 106.061 81.2065C105.763 87.475 105.183 93.3031 104.432 98.6463" stroke="#740600" stroke-width="0.62" stroke-miterlimit="10" stroke-linecap="round"/>
<path d="M121.535 60.2146C122.331 67.0726 122.74 75.2664 122.078 84.4676C121.654 90.3779 120.859 95.7583 119.907 100.549" stroke="#740600" stroke-width="0.62" stroke-miterlimit="10" stroke-linecap="round"/>
<path d="M94.2972 106.974C92.6017 107.012 91.1814 105.654 90.3337 104.183C89.486 102.713 88.9878 101.034 87.9914 99.6612C86.4372 97.512 83.6636 96.318 81.0386 96.6688C80.124 96.7882 79.2168 97.0941 78.5178 97.6986C77.6849 98.415 77.2239 99.4896 77.0306 100.572C76.5546 103.325 77.7593 106.221 79.8191 108.101C81.8789 109.982 84.6972 110.892 87.4783 110.982C91.2781 111.094 95.1523 109.653 97.7698 106.885C96.2305 106.862 94.7136 106.982 94.2972 106.989V106.974Z" fill="#00505F"/>
<path d="M87.3518 114.877C95.1076 116.108 103.116 113.855 109.935 109.944C112.002 108.758 114.018 107.4 115.542 105.556C117.066 103.713 118.048 101.333 117.81 98.9521" stroke="#262626" stroke-miterlimit="10"/>
<path d="M89.2109 115.631C89.6422 116.825 90.1032 118.064 91.0253 118.944C91.8358 119.72 92.9364 120.131 94.0221 120.414C95.948 120.914 97.9557 121.086 99.9412 120.907C100.99 120.817 102.038 120.623 102.997 120.19C105.979 118.832 107.511 114.937 106.262 111.9C105.176 112.541 104.076 113.191 102.901 113.653C101.28 114.288 99.5471 114.556 97.8219 114.75C94.8772 115.094 91.9176 115.25 88.9581 115.228C88.8911 115.817 89.2258 116.429 89.2183 115.623L89.2109 115.631Z" fill="#242424"/>
<path d="M161.616 56.7222C158.761 57.4908 156.269 59.5355 154.946 62.1921C153.622 64.8488 153.496 68.0726 154.596 70.8262" stroke="#404040" stroke-miterlimit="10"/>
<path d="M207.37 72.4902C208.322 76.1543 209.282 79.9825 208.471 83.6839C208.181 85.0197 207.66 86.2958 207.11 87.5495C205.898 90.3031 204.508 92.9747 202.953 95.5492C202.738 95.9074 202.411 96.3179 201.994 96.2358" stroke="#404040" stroke-miterlimit="10"/>
<path d="M215.974 81.1692C216.376 83.1244 216.785 85.1243 216.561 87.1093C216.338 89.0943 215.379 91.1092 213.646 92.0868" stroke="#404040" stroke-miterlimit="10"/>
<path d="M114.501 97.3178C116.449 96.3179 118.896 96.3776 120.799 97.4671C122.703 98.5566 123.989 100.646 124.116 102.84" stroke="#262626" stroke-miterlimit="10" stroke-linecap="round"/>
<path d="M93.085 106.758C93.4196 106.87 93.8806 107.071 94.2822 107.474C94.5945 107.788 94.7209 108.064 94.8324 108.027C94.996 107.974 95.0853 107.31 94.7804 106.952C94.6168 106.758 93.9401 106.892 93.0924 106.758H93.085Z" fill="#002B3F"/>
</g>
<defs>
<clipPath id="clip0_192_803">
<rect width="217" height="243" fill="white"/>
</clipPath>
</defs>
</svg>
