<svg id="eRuj58Jn2TV1" xmlns="http://www.w3.org/2000/svg" xmlns:xlink="http://www.w3.org/1999/xlink" viewBox="0 0 792 612" shape-rendering="geometricPrecision" text-rendering="geometricPrecision"><g id="eRuj58Jn2TV2"><path d="M298.96,249.41c-.77.35-1.53.69-2.3,1.04-1-1.04-1.68-1.57-1.93-1.41-.59.39,1.29,4.82,2,4.67.3-.07.39-.96.37-2.22.86-.4,1.73-.79,2.59-1.19-.23-.3-.48-.59-.73-.89Z" fill="#3f1a00"/><path d="M302.29,255.56c-.77.35-1.53.69-2.3,1.04-1-1.04-1.68-1.57-1.93-1.41-.59.39,1.29,4.82,2,4.67.3-.07.39-.96.37-2.22.86-.4,1.73-.79,2.59-1.19-.23-.3-.48-.6-.73-.89Z" fill="#3f1a00"/><path d="M310.79,235.97c.77-.32,1.55-.65,2.32-.97.97,1.07,1.64,1.61,1.89,1.46.6-.37-1.15-4.86-1.87-4.72-.3.06-.42.94-.43,2.21-.88.37-1.75.74-2.63,1.11.24.3.48.61.72.91Z" fill="#3f1a00"/><path d="M315.35,242.84c.76-.37,1.51-.73,2.27-1.1c1.03,1.01,1.73,1.52,1.97,1.35.58-.4-1.42-4.79-2.13-4.61-.3.08-.37.97-.31,2.23-.85.42-1.71.84-2.56,1.26.25.29.5.58.76.87Z" fill="#3f1a00"/><path d="M319.35,248.73c.76-.37,1.51-.73,2.27-1.1c1.03,1.01,1.73,1.52,1.97,1.35.58-.4-1.42-4.79-2.13-4.61-.3.08-.37.97-.31,2.23-.85.42-1.71.84-2.56,1.26.25.29.5.58.76.87Z" fill="#3f1a00"/><path d="M295.48,242.81c-.77.35-1.53.69-2.3,1.04-1-1.04-1.68-1.57-1.93-1.41-.59.39,1.29,4.82,2,4.67.3-.07.39-.96.37-2.22.86-.4,1.73-.79,2.59-1.19-.23-.29-.48-.59-.73-.89Z" fill="#3f1a00"/><path d="M511.59,374.68c-1.43,3.71-4.05,7.22-7.81,8.51-3.04,1.05-6.38.52-9.55-.02-.77-.13-1.56-.27-2.22-.69-1.71-1.08-2.07-3.71-3.91-4.54c5.08,2.71,12.14.68,15.08-4.24c2.07.91,4.35,1.32,8.41.98Z" fill="#030202"/><path d="M327.15,281.32c-4.34-5.36-8.69-10.73-13.03-16.09-1.18-1.46-2.4-2.95-4.02-3.9s-3.75-1.26-5.35-.29c-3.87-7.04-7.75-14.07-11.62-21.11c5.25-2.73,10.51-5.47,15.76-8.2c3.69,5.18,7.38,10.35,11.07,15.53.86,1.21,1.77,2.65,1.37,4.08-.43,1.51-2.24,2.58-2.06,4.14.08.68.54,1.25.98,1.77c5.86,6.98,11.71,13.96,17.57,20.93-3.64,1.98-7.72,3.11-10.67,3.14Z" fill="#8a5d00"/><path d="M482.97,376.91c1.9,2.49,2.62,6.02,5.31,7.63c2.26,1.35,5.12.86,7.69.33c2.21-.46,4.42-.91,6.63-1.37-2.45-.24-4.98-.5-7.13-1.71-3.69-2.08-5.37-6.4-6.79-10.39-1.47-4.14-2.94-8.27-4.42-12.41-.19,4.95-.38,9.9-.57,14.84-.06,1.55-.09,3.2-.72,3.08Z" fill="#404040"/><path d="M305.07,251.74c7.19,8.64,14.37,17.28,21.56,25.93" fill="#131500" stroke="#000" stroke-width="0.1" stroke-miterlimit="10"/><path d="M307.59,251c6.81,8.49,13.63,16.99,20.44,25.48" fill="#131500" stroke="#000" stroke-width="0.1" stroke-miterlimit="10"/><path d="M310.11,249.52c7.28,8.89,14.57,17.78,21.85,26.67" fill="#131500" stroke="#000" stroke-width="0.1" stroke-miterlimit="10"/><path d="M312.63,248.41c6.74,9.21,13.48,18.42,20.22,27.63" fill="#131500" stroke="#000" stroke-width="0.1" stroke-miterlimit="10"/></g><g id="eRuj58Jn2TV16"><path d="M344.84,233.75c-5.72.84-11.51,1.26-17.3,1.25-1.1,0-2.31-.06-3.12-.81-.71-.65-.92-1.67-1.08-2.62-2.62-15.64.67-32.19,9.07-45.64c1.31-2.1,2.83-4.21,5.01-5.39c2.92-1.58,6.46-1.24,9.75-.86c7.49.87,14.97,1.74,22.46,2.61-1.96,6.24-6.49,11.27-10.16,16.69-4.12,6.08-7.24,12.84-9.21,19.92-1.48,5.34-2.44,11.11-5.42,14.85Z" fill="#ee5007"/><path d="M332.65,285.38c1.18-22.5,3.86-44.93,8.01-67.08c1.63-8.71,3.6-17.64,8.69-24.9c4.15-5.92,10.12-10.33,16.4-13.9c17.72-10.06,38.42-14.02,58.8-14.1s40.59,3.54,60.51,7.82c3.72.8,7.64,1.72,10.4,4.34c3.27,3.09,4.24,7.86,4.76,12.33c3.19,26.97-3.36,53.99-7.44,80.84-5.77,38.01-6.63,76.58-7.33,115.03-.27,14.52-.62,29.51-6.67,42.71-5.05,11.01-13.68,19.91-22.14,28.57-4.92,5.03-10.04,10.21-16.59,12.79-6.57,2.59-13.88,2.3-20.94,1.98-15.16-.71-30.33-1.41-45.49-2.12-2.61-.12-5.33-.27-7.62-1.55-2.82-1.57-4.49-4.58-5.94-7.46-27.09-53.92-30.47-116.93-27.41-175.3Z" fill="#004a47"/><path d="M499.91,191.36c-7.25.09-14.51.17-21.76.26-1.91.02-3.92.07-5.59,1.02-1.44.82-2.45,2.23-3.35,3.63-7.93,12.32-11.34,27.47-9.45,42c.32,2.42.9,5.05,2.81,6.57c1.13.9,2.58,1.28,3.99,1.64c8.12,2.08,16.24,4.16,24.36,6.23c2.06-3.16,2.19-7.23,1.5-10.94-.68-3.71-2.09-7.25-2.89-10.94-2.85-13.2,2.33-26.78,10.38-39.47Z" fill="#ee5007"/><path d="M504.65,249.21c.44-.4,1.48-1.89,1.85-2.36c1.39-1.74,2.76-6.26,7.51-19.59c2.76-7.76,3.43-16.52.36-24.18-1.32-3.3-3.55-6.15-6.39-8.29-2.7-2.04-4.91-4.65-8.07-3.43-3.88,1.5-7.9,7.56-9.61,11.36-5.81,12.91-7.22,27.76-3.94,41.53.99,4.15,3.22,9.2,7.49,9.33c4.08.13,4.01-.12,4.73-.37.78-.27,4.24-2.33,6.07-4Z" fill="#9a5007"/><path d="M458.22,282.91c6.35-8.17,9.91-18.47,9.96-28.82c2.53-.44,5.13-.52,7.68-.23-1.1,7.78,1.46,16.01,6.8,21.79.9.98,1.91,1.93,2.39,3.17.46,1.19.39,2.5.32,3.78-2.34,39.76-4.68,79.51-7.02,119.27-.08,1.34-.22,2.82-1.21,3.72-.62.57-1.47.8-2.29.98-6.46,1.44-13.35.81-19.44-1.77c1.27-40.79,2.22-81.59,2.81-121.89Z" fill="#f8cb2e"/><path d="M455.41,399.94c7.43,1.02,17.04,1.59,23.21-2.67-.23,9.43-1.46,15.69-.13,23.28.13.72.25,1.48-.04,2.15-.32.71-1.06,1.14-1.76,1.48-6.23,3.02-14.7,2.76-21.28.59-.69-8.5-.22-16.29,0-24.83Z" fill="#f09fff"/><path d="M458.23,282.99c.36,1.39.74,2.81,1.54,4s2.13,2.13,3.56,2.07c1.36-.05,2.57-.99,3.31-2.14.73-1.15,1.08-2.5,1.41-3.83-.03,2.98,2.8,5.66,5.77,5.47s5.44-3.22,5.02-6.17c.13,1.02.28,2.06.8,2.94s1.53,1.55,2.54,1.37c1.31-.25,1.95-1.71,2.27-3c.34-1.4.55-2.83.62-4.27.02-.34.02-.69-.11-1.01-.16-.4-.69-.56-.85-.96-.53-1.3-3.27-3.65-4.53-5.9-1.93-3.45-3.32-6.93-3.89-11.97-.03-.26-.41.23-.6.05-.18-.17-.45-.22-.69-.26-2.19-.34-4.44-.34-6.62.01-2.02,10.98-6.5,19.86-9.84,23.42.02.01.04.01.29.18Z" fill="#ffefc4"/><path d="M467.99,253.74c2.53-.22,5.05-.43,7.58-.65.2-.02.41-.03.59.06-.49,2.35-.5,4.79-.5,7.18-2.69.15-5.4.11-8.09-.1.52-2.12.62-4.22.42-6.49Z" fill="#383838"/><path d="M502.79,194.3c-4.82,1.7-8.52,5.82-10.61,10.47-2.1,4.66-2.76,9.84-2.93,14.94-.25,7.72.56,15.47,2.42,22.97.39,1.58.94,3.31,2.34,4.15c1.76,1.05,4,.24,5.88-.59c1.78-.78,3.6-1.6,4.93-3.02c1.5-1.6,2.19-3.78,2.84-5.88c1.45-4.72,2.9-9.47,3.65-14.35s.77-9.95-.62-14.69c-.5-1.7-1.19-3.38-2.32-4.75s-2.73-2.42-4.49-2.59c-3.32-.32-6.17,2.41-7.86,5.29-3.9,6.64-4.28,14.89-2.64,22.42.35,1.6.79,3.2,1.69,4.57.9,1.36,2.33,2.46,3.95,2.61c1.92-2.69,3.85-5.41,5.17-8.44s2.01-6.43,1.33-9.67c-.23-1.11-.77-2.33-1.86-2.63-1.36-.38-2.62.92-3.19,2.22-.89,2.02-.99,4.37-.28,6.45.65-.2,1.19-.74,1.4-1.39" fill="none" stroke="#743100" stroke-width="0.4" stroke-miterlimit="10"/><path d="M463.17,291.4c-.22,17.59-.67,35.57-1.38,53.93-.58,14.81-1.31,29.37-2.17,43.65" fill="none" stroke="#d47100" stroke-width="0.25" stroke-miterlimit="10"/><path d="M471,291.4c-.22,17.59-.67,35.57-1.38,53.93-.58,14.81-1.31,29.37-2.17,43.65" fill="none" stroke="#d47100" stroke-width="0.25" stroke-miterlimit="10"/><path d="M479.77,291.79c-.73,18.55-1.52,37.18-2.37,55.9-.63,13.94-1.29,27.83-1.98,41.68" fill="none" stroke="#d47100" stroke-width="0.25" stroke-miterlimit="10"/><path d="M452.87,302.8c6.34,6.26,16.38,8.45,24.74,5.39c3.76-1.37,7.42-4.1,8.17-8.1c1.21.37,1.56,1.9,1.67,3.16.31,3.47.41,6.96.28,10.45-.03.72-.07,1.47-.47,2.06-.42.62-1.15.95-1.85,1.22-9.25,3.65-19.91,3.58-29.11-.18-.99-.41-2.04-.91-2.55-1.86-.38-.7-.4-1.53-.41-2.33-.04-3.09-.09-6.18-.47-9.81Z" fill="#3b3b3b"/><path d="M396.06,470.74c4.63.29,11.74.69,20.48.95c9.4.29,14.1.43,15.46.04c14.08-4.05,10.59-61.06,7.66-92.73-14.53,30.58-29.06,61.16-43.6,91.74Z" fill="#352500"/><path d="M495.67,191.41c-1.65-1.01-5.3-2.94-10.27-3.03-6.7-.13-11.39,3.15-12.83,4.26c2.15-1.44,5.77-1.05,11.38-1.1c5.46-.05,8.41-.18,11.72-.13Z" fill="#352500"/><path d="M459.49,235.64c.91,1.83,2.35,4.16,4.59,6.43c4.54,4.61,9.72,6.28,12.32,6.92-4.79-1.2-8.6-2.21-11.15-2.88-.55-.14-1.54-.53-2.66-1.28-.97-.65-1.69-2.19-2.11-3.24-.46-1.16-1.09-3.2-.99-5.95Z" fill="#9f3500"/><path d="M400.03,270.49c.42.48,1.05,1.16,1.9,1.89c6,5.15,12.6,4.06,22.07,5.19c13.34,1.59,16.49,5.68,20.3,2.96c3.78-2.7,3.88-9.02,3.46-13.45-5.84,2.28-14.62,4.93-25.53,5.45-9.06.43-16.68-.75-22.2-2.04Z" fill="#352500"/><path d="M340.33,267.31c.72.97,1.92,2.39,3.68,3.74c6.83,5.22,12.84,2.16,27.85,3.41c10.43.87,15.09,2.97,18.37-.3c1.41-1.4,2.73-3.96,1.87-5.66-1.81-3.61-12.02-.59-25.87.18-6.44.35-15.26.31-25.9-1.37Z" fill="#352500"/><path d="M456.4,360.63c-.2,6.45.31,16.16.51,17.49.45,3.11,1.21,8.52,1.51,9.47c1.59,5.14,2.27,7.39,4.77,8.89-2.59,2.36.25.58-2.84-.49-2.94-1.02-4.4-3.39-4.8-4.11.1-3.94.2-7.89.3-11.85.16-6.48.35-12.95.55-19.4Z" fill="#c98200"/><path d="M462.11,398.75c-.46,1.48,1.46,8.98,3.95,14.82c3.2,7.49,10.32,9.91,11.42,10.26-2.19,1.06-6.01,2.58-11.01,2.86-5.04.28-9.04-.81-11.33-1.63-.23-4.11-.36-8.48-.32-13.07.03-4.66.22-9.08.52-13.24c3.37.73,3.39-.73,6.77,0Z" fill="#f08aff"/><path d="M451.89,386.07c.53,2.62,2.48,4.81,4.83,6.08s5.07,1.73,7.74,1.8c6.76.19,13.92-2.23,17.96-7.65.48,2.74.54,5.55.2,8.31-.11.9-.28,1.82-.82,2.55-.46.63-1.14,1.05-1.82,1.43-7.99,4.48-17.86,5.45-26.56,2.61-.46-.15-.93-.32-1.25-.69-.44-.52-.44-1.26-.42-1.94.13-3.89.25-7.78.14-12.5Z" fill="#3b3b3b"/></g><g><path id="eRuj58Jn2TV39" d="M403.11,231.88c8.42,4.06,15.17,4.9,19.82,4.9c14.16.01,21.23.01,21.93-.15.36-.08,1.92-.48,3.26.3.09.05,1.11.65,1.08,1.1-.11,1.53-12.49,2.53-25.2,1.56-2.32-.18-22.35-1.79-22.56-5.62-.05-.84.86-1.59,1.67-2.09Z" fill="#352500"/><path id="eRuj58Jn2TV40" d="M344.4,218.376824c-.2.329999-.08,6.643176,0,7.153176.45,2.72,8.53,2.45,22.59,4.45c0,0,11.47,1.63,22.73,1.34c1.58-.04,4.78-.18,5.07-1.33.13-.54,1.37745-7.418357,1.18745-7.608357-2.32-2.37-34.166313-16.223171-51.57745-4.004819Z" fill="#352500"/><path id="eRuj58Jn2TV41" d="M392.06,234.06c1.14-8.04,2.29-16.07,3.43-24.11-6.86-.06-13.72-.77-20.46-2.11-3.22-.64-6.87-1.34-9.52.59-2.07,1.5-2.88,4.2-3.17,6.75-.29,2.58-.18,5.19-.08,7.79.15,3.64.3,7.27.45,10.91.04.96.09,1.97.58,2.81.62,1.06,1.84,1.63,3.04,1.92c3.5.84,7.14-.24,10.74-.27c2.96-.03,5.92.66,8.85.22s5.85-2.51,6.14-4.5Z" fill="#e6e6e6"/><path id="eRuj58Jn2TV42" d="M389.22,234.5c1.25-7.68,2.17-15.42,2.75-23.18-7.9-1.01-15.8-2.01-23.71-3.02-1.2-.15-2.42-.3-3.61-.11-2.26.38-4.26,1.98-6.55,1.91-.04,8.68-1.08,17.36-2.69,25.69c7.36.46,14.72.92,22.07,1.38c4.02.26,8.51.36,11.74-2.67Z" fill="#1d5b79"/><path id="eRuj58Jn2TV43" d="M385.68,235.06c.33-7.53,1.17-15.03,2.52-22.44-8.88-1.06-17.75-2.13-26.63-3.19-1.56-.19-3.14-.38-4.71-.31-2.51.11-5.11.86-7.48.01-.98,3.3,1.68,6.71,4.8,8.16c3.13,1.44,6.68,1.57,10.02,2.39c5.45,1.34,10.38,4.65,13.71,9.17c1.01,1.37,1.88,2.86,3.14,4.01c1.25,1.13,3.02,1.9,4.63,2.2Z" fill="#dedede"/><path id="eRuj58Jn2TV44" d="M334.55,462.58c-1.86,14.94-4.97,29.72-9.3,44.14-.2.67-.42,1.37-.94,1.83-.57.51-1.37.63-2.12.75-4.44.67-8.82,1.67-13.11,2.99-1.95.6-4.34,2.14-3.63,4.05.51,1.36,2.26,1.68,3.71,1.74c4.05.16,8.11-.12,12.1-.83c2.22-.4,4.45-.94,6.38-2.09c5.2-3.1,6.98-9.61,8.77-15.39c3.44-11.15,8.52-21.79,15.01-31.48-5.73-1.79-11.47-3.57-16.87-5.71Z" fill="#006e7f"/><path id="eRuj58Jn2TV45" d="M395.31,463.27c1.61,17.47,4.33,34.83,8.13,51.96.15.65.34,1.38.91,1.73.49.31,1.13.25,1.7.16c2.48-.39,4.95-1.07,7.45-.89s5.14,1.48,5.97,3.85c-5.96,2.41-12.41,3.6-18.84,3.46-.92-.02-1.91-.09-2.63-.66-.68-.53-.99-1.4-1.26-2.21-5.88-17.42-11.56-34.9-17.07-52.38c4.95-2.53,10.33-4.23,15.64-5.02Z" fill="#006e7f"/><path id="eRuj58Jn2TV46" d="M304.51,399.88c-13.54,9.53-26.65,19.65-39.31,30.32-1.69,1.42-3.51,3.15-3.52,5.36c3.63,2.36,7.27,4.71,10.9,7.07c1.11.72,2.27,1.46,3.59,1.57c1.28.11,2.52-.39,3.7-.88c3.3-1.36,6.59-2.72,9.89-4.08-4.35-.29-8.35-3.51-9.56-7.7c9.78-5.75,19.78-11.14,29.74-16.48-2.98-4.37-4.82-9.5-5.43-15.18Z" fill="#006e7f"/><path id="eRuj58Jn2TV47" d="M299.26,382.19c.28,16.98,3.77,33.9,10.24,49.69c5.67,13.82,14.09,27.25,27.13,35.16c12.45,7.54,27.87,7.96,42.52,6.94c21.98-1.54,37.8-5.49,53.55-32.85c10.55-18.33,17.01-39.45,12.69-60-.35-1.66-.79-3.38-1.98-4.62-1.18-1.24-2.91-1.81-4.57-2.31-45.15-13.68-95.52-10.59-138.51,8.51-.92.41-1.41,1.57-2.41,1.72-.98.14-.56-1.99,1.34-2.24Z" fill="#468b97"/><path d="" fill="#cf3c3c"/><path d="" fill="#a83939"/><path id="eRuj58Jn2TV50" d="M414.81,242.13c-.53-9.8-.6-19.62-.2-29.42.04-.88.08-1.8.5-2.58.38-.71,1.02-1.23,1.55-1.83c1.33-1.47,2.06-3.47,2-5.46.88,3.4,1.76,6.86,1.71,10.37-.03,1.88-.32,3.74-.5,5.61-.79,8.16.54,16.45-.63,24.56-1.74-.74-3.49-1.47-4.43-1.25Z" fill="#387034"/><path id="eRuj58Jn2TV51" d="M346.04,230.23c.23-6.97,1.05-13.91,2.44-20.74c12.31,1.97,24.73,3.13,37.15,4.29-.79,6.77-1.58,13.53-2.43,20.44-12.74.63-26.05,1.04-37.16-3.99Z" fill="#b22727"/><path id="eRuj58Jn2TV52" d="M344.72,224.23c-.63.26-1.07.93-1.06,1.61c11.37,2.59,22.92,4.36,34.54,5.31c5.01.41,10.11.66,15.03-.36.59-.12,1.24-.3,1.56-.81s-.02-1.39-.61-1.3c.92-.33,1.95.36,2.33,1.26s.28,1.92.14,2.88c-.92,6.74-2.86,13.32-3.63,20.08-.53,4.68-.49,9.41-.72,14.12-.03.62-.07,1.26-.38,1.8-.37.64-1.06,1.02-1.73,1.32-4.51,2.06-9.62,2.33-14.57,2.3-11.96-.07-23.92-1.69-35.47-4.82-.23-14.57,1-29.17,4.57-43.39Z" fill="#6b5037"/><path id="eRuj58Jn2TV53" d="M429.48,243.74c-1.28-9.53-2.57-19.07-3.85-28.6-.21-1.52-.41-3.07-.21-4.59.34-2.58,1.79-5.29.6-7.6.52.04,1.04.07,1.55.11.25,2.14.92,4.22,1.96,6.11.35.63.74,1.25.98,1.93.26.73.35,1.51.43,2.28c1.14,10.33,2.78,20.61,4.91,30.79-2.18-.2-4.38-.39-6.37-.43Z" fill="#b22727"/><path id="eRuj58Jn2TV54" d="M411.95,243.34c5.64-10.56,11.29-21.11,16.93-31.67.42-.79.86-1.6,1.57-2.13.84-.63,1.93-.79,2.89-1.2c1.32-.57,2.42-1.65,3.01-2.96.15-.34.29-.71.6-.9s.85-.02.57.25c-.69,2.05-1.38,4.1-2.06,6.15-.53,1.58-1.06,3.16-1.79,4.66-1.15,2.38-2.78,4.49-4.3,6.64-4.54,6.45-8.25,13.47-11.01,20.86-.22.58-.48,1.22-1.05,1.48-.37.17-.81.13-1.21.07-1.44-.22-2.85-.6-4.15-1.25Z" fill="#f8cb2e"/><path id="eRuj58Jn2TV55" d="M433.77,247.92c3.61-6.92,6.63-14.14,9.29-21.48c2.04-5.63,4.01-11.56,8.28-15.76c1.12,6.34-2.19,12.49-4.67,18.42-2.19,5.24-3.79,10.71-5.39,16.16-2.45-.05-4.91.61-7.51,2.66Z" fill="#b22727"/><path id="eRuj58Jn2TV56" d="M432.49,246.62c1.93-6.36,3.38-12.86,4.36-19.43.29-1.99.55-4,1.19-5.91c1.05-3.13,3.09-5.82,5.09-8.44-.04,3.01-.08,6.02-.33,8.99-1.64,7.45-3.28,14.9-4.92,22.35-.04.18-.09.38-.23.5-.14.13-.35.15-.54.16-1.65.12-3.3.24-4.62,1.78Z" fill="#1d5b79"/><path id="eRuj58Jn2TV57" d="M407.47,243.77c.31-7.1-.17-14.24-1.42-21.24c1.33-.24,2.64-.57,3.92-1c.97,7.04,1.91,14.09,2.81,21.14-1.75.5-3.5,1-5.24,1.5-.11.03-.26.05-.32-.05-.07-.11.24-.17.25-.35Z" fill="#b22727"/><path id="eRuj58Jn2TV58" d="M403.11,231.88c-1.32-.24-2.13,1.7-1.44,2.85.68,1.15,2.1,1.6,3.4,1.92c14.38,3.64,29.55,4.11,44.13,1.38.18,7.52-.44,15.03-1.05,22.52-.35,4.21-.69,8.42-1.04,12.63-.12,1.44-.27,2.98-1.18,4.12-1.51,1.9-4.37,1.86-6.78,1.6-13.07-1.39-26.01-3.99-38.61-7.75-.25-.07-.51-.15-.69-.34-.25-.24-.31-.61-.36-.95-1.72-12.14-1.07-24.61,1.91-36.51.14-.59.34-1.25,1.71-1.47Z" fill="#6b5037"/><path id="eRuj58Jn2TV59" d="M405.79,203.7c.5,1.67.38,3.51-.34,5.1-.94,2.08-2.81,3.66-3.57,5.82-1.09,3.08.73,6.86,3.81,7.94c1.59.55,3.52.37,4.72-.81c1.53-1.5,1.42-4.05.57-6.01s-2.31-3.61-3.26-5.53c-.82-1.66-1.25-3.5-1.93-6.51Z" fill="#bf8d5e"/><path id="eRuj58Jn2TV60" d="M277.82,432.44c-1.88-.54-2.41-1.63-5.63-1.62c2.36-1.49,5.36-3.12,9-4.59c3.35-1.35,6.44-2.23,9.08-2.82-4.16,3.01-8.3,6.02-12.45,9.03Z" fill="#00505f"/><path id="eRuj58Jn2TV61" d="M300.79,387.853427c.09.8-.55,8.496573-.44,9.316573.14,1.07.28,2.12.44,3.14c4.86-.6,12.3-1.56,21.35-2.84c36.48-5.18,34.84-6.64,47.01-7.31c15.55-.86,28.8,1.14,55.31,5.14c9.2,1.39,16.82,2.77,22.15,3.8.99-3.15,1.73217-9.086573.88217-11.246573-4.02-10.28-29.20217-23.24-146.70217,0Z" fill="#006e7f"/></g><g id="eRuj58Jn2TV62"><path d="M309.89,432.8c.19,3.43-.38,7.45-2.6,10.08s-5.47,4.36-8.88,4.75c-.38.04-.83.12-.96.48-.07.18-.03.37.02.56.69,2.81,2.38,5.36,4.7,7.09.86.64,1.86,1.19,2.93,1.16c1.46-.03,2.67-1.08,3.68-2.13c3.08-3.23,5.19-6.27,6.78-10.43-1.66-3.02-3.87-7.24-5.67-11.56Z" fill="#030303"/><path d="M447.79,450.04c1.21,3.08,2.02,4.59,2.36,8-2.83,1.36-5.98,2.03-9.12,1.93-.24-.01-.49-.02-.69-.16-.21-.14-.31-.39-.4-.63-1.67-4.26-3.37-8.85-2.32-13.3c3.03.16,6.09-.15,9.02-.92c0,0,.17,1.57.5,2.62.11.32.53,2.14.65,2.46Z"/><path d="M300.35,397.17c-5.57,6.35-9.24,14.58-11.77,22.64-3.25,10.36-5.28,21.77-1.41,31.91c1.25,3.29,3.11,6.35,5.44,8.99.55.62,1.16,1.24,1.95,1.49.72.23,1.51.13,2.25-.02c3.48-.73,6.71-2.62,9.04-5.29-5.62-1.74-7.76-8.55-8.18-14.42-.65-9.14.83-18.43,4.3-26.92.37-.91.77-1.83.92-2.8.19-1.3-.06-2.63-.34-3.92-.66-2.94-1.74-7.42-2.2-11.66Z" fill="#5e5e5e"/><path d="M445.33,389.48c-11.4,4.86-21.7,12.29-29.91,21.58-3.28,3.72-6.33,7.95-7.06,12.85-.66,4.38.61,8.81,2.17,12.95c1.74,4.6,3.89,9.09,6.87,13.02c5.44,7.17,13.62,12.19,22.47,13.8c1.03.19,2.08.33,3.12.19c3.22-.42,5.46-3.3,7.34-5.95-6.3-1.88-11.3-6.58-16.05-11.13-4.8-4.6-9.83-9.58-11.3-16.07-1.53-6.71,1.18-13.82,5.51-19.16c4.34-5.34,10.16-9.24,15.89-13.05c3.53-2.35,7.05-4.69,10.25-7.21.32-.33.13-.92-.25-1.18s-.87-.27-1.32-.27c-2.68-.02-5.38-.04-7.73-.37Z" fill="#5e5e5e"/></g><g id="eRuj58Jn2TV67"><path d="M303.86,334.95c.26-10.18-1.44-20.36-.94-30.53.51-10.18,3.69-20.9,11.64-27.27c8.25-6.61,19.68-7.15,30.24-7.01c21.37.29,42.72,2.18,63.8,5.66c10.08,1.67,20.51,3.87,28.57,10.15c3.29,2.56,6.24,6.08,6.51,10.24s-3.24,8.64-7.37,8.06c7.56,8.81,12.01,20.25,12.37,31.85-4.92,2.89-10.83,3.42-16.52,3.84-30.61,2.28-61.29,3.53-91.98,3.73-11.45.08-23.05-.01-34.15-2.86-1.94-.49-4.3-2.68-2.17-5.86Z" fill="#b22727"/><path d="M436.31,304.25c-5.6-.53-11.2-1.07-16.8-1.6c3.32.95,10.41,3.46,16.59,10.07c8.42,9.01,9.48,19.55,9.68,22.72.92-.2,1.84-.4,2.77-.59-.19-3.62-.82-8.38-2.61-13.68-2.66-7.88-6.72-13.52-9.63-16.92Z" fill="#740600"/><path d="M291.1,335.14c-2.97,19.47-3.18,39.53-.63,59.08.12.9.28,1.87.87,2.44.61.59,1.49.54,2.27.46c33.52-3.5,66.85-13.3,100.4-10.25c17.75,1.61,35.2,6.82,52.99,7.82.96.05,1.98.08,2.79-.54.91-.7,1.3-2.03,1.62-3.27c4.03-15.94,5.09-32.94,3.08-49.41-.31-2.57-.82-5.38-2.55-6.97-1.37-1.26-3.2-1.47-4.93-1.62-42.55-3.88-85.3-7.77-127.84-3.78-7.62.72-15.25,1.69-22.69,3.77-2.61.74-5.27,1.58-5.38,2.27Z" fill="#9f2727"/><path d="M304.29,335.6c-.92,7.71-1.6,16.15-1.82,25.23-.27,10.77.13,20.69.89,29.63" fill="none" stroke="#740600" stroke-width="0.5" stroke-linecap="round" stroke-miterlimit="10"/><path d="M319.52,335.89c-.03,7.45-.03,14.96,0,22.52.04,9.77.14,19.45.3,29.04" fill="none" stroke="#740600" stroke-width="0.5" stroke-linecap="round" stroke-miterlimit="10"/><path d="M337.59,333.52c0,8.4,0,16.79,0,25.19c0,8.79,0,17.58,0,26.37" fill="none" stroke="#740600" stroke-width="0.5" stroke-linecap="round" stroke-miterlimit="10"/><path d="M353.59,332.33c.79,7.95,1.33,16.57,1.48,25.78.15,8.97-.1,17.39-.59,25.19" fill="none" stroke="#740600" stroke-width="0.5" stroke-linecap="round" stroke-miterlimit="10"/><path d="M371.67,332.33c-.81,7.62-1.37,15.94-1.48,24.89-.1,7.69.14,14.92.59,21.63" fill="none" stroke="#740600" stroke-width="0.5" stroke-linecap="round" stroke-miterlimit="10"/><path d="M389.74,334.11c.52,7.3.71,15.44.3,24.3-.32,6.81-.96,13.15-1.78,18.96" fill="none" stroke="#740600" stroke-width="0.5" stroke-linecap="round" stroke-miterlimit="10"/><path d="M406.93,335.59c.87,7.45,1.31,16.37.59,26.37-.46,6.42-1.33,12.28-2.37,17.48" fill="none" stroke="#740600" stroke-width="0.5" stroke-linecap="round" stroke-miterlimit="10"/><path d="M425,337.07c1.15,7.02,2.02,15.3,2.07,24.59.05,8.41-.58,15.98-1.48,22.52" fill="none" stroke="#740600" stroke-width="0.5" stroke-linecap="round" stroke-miterlimit="10"/><path d="M445.44,339.74c-.16,7.49-.27,15.1-.3,22.81-.04,9.13.03,18.11.18,26.92" fill="none" stroke="#740600" stroke-width="0.5" stroke-linecap="round" stroke-miterlimit="10"/></g><g><path id="eRuj58Jn2TV81" d="M423.43,421c.61,1.6,1.64,1.97,1.21,3.64-6.35.88-12.83.84-19.18-.11-1.15-.17-2.39-.36-3.41.21-.78.43-1.27,1.24-1.7,2.02-2.23,4.16-3.21,9.8,0,13.26c3.02,3.25,8.29,2.98,12.45,1.44s8-4.1,12.38-4.73c5.16-.75,10.28,1.26,15.11,3.23c6.89,2.81,13.86,5.66,19.93,9.98c2.19,1.55,4.45,3.37,7.13,3.46s5.52-2.71,4.29-5.1c-12.19-9.22-21.34-22.4-25.73-37.04-.63-2.1-1.26-4.38-2.98-5.75s-4.89-1.02-5.5,1.11c-3.62,7.56-2.15,17.26,3.55,23.41-1.5-.66-3-1.32-4.51-1.98-.68-.3-1.39-.63-1.78-1.26-.36-.59-.87-.93-1.33-1.45-2.44-2.78-2.12-2.58-2.67-4.59-.35-1.28-2.6-2.66-3.85-3.41-1.41-.83-1.65-.8-1.74-.59-.43.94-.59,1.23-.76,1.69.02-.06-.52,1.21-.91,2.56Z" fill="#006e7f"/><path id="eRuj58Jn2TV82" d="M286.8,428.47c-1.54,1.17-2.91,2.57-4.06,4.12.9,1.29,2.8,1.22,4.37,1.01c4.05-.55,8.1-1.11,12.15-1.66.51-.07,1.06-.13,1.5.12.4.23.62.66.81,1.08c1.15,2.54,1.76,5.32,1.77,8.1.01,1.03-.08,2.11-.62,2.99-.77,1.25-2.27,1.83-3.68,2.23-7.03,1.98-14.71,1.55-21.48-1.2-2.31-.94-4.82-2.62-4.83-5.11c0-1.02.43-1.99.86-2.91c1.31-2.82,2.65-5.69,4.77-7.97s5.17-3.91,8.26-3.54c.12,1.05.24,2.1.18,2.74Z" fill="#006e7f"/><g><path id="eRuj58Jn2TV84" d="M353.14,396.14c13.11,3.74,24.47-2.56,32.36-12.89.06-.09.22-.01.18.09-4.261792,11.086933-13.588004,15.000646-22.97,15.000646-3.299455,0-6.66-.870646-9.63-2.010646-.11-.04-.06-.22.06-.19v0Z" transform="translate(0-.301877)"/></g><path id="eRuj58Jn2TV85" d="M381.44,382.99c.35-.2,2.42-1.37,4.94-.59c2.04.63,3.08,2.13,3.36,2.57" fill="none" stroke="#000" stroke-linecap="round" stroke-miterlimit="10"/><path id="eRuj58Jn2TV86" d="M440.69,429.69c2.52.88,5.31,2.01,8.26,3.49c2.6,1.29,4.9,2.64,6.91,3.95-2.95-2.24-6.24-4.54-9.88-6.81-2.65-1.65-5.48-3.13-7.95-4.44.8,1.74,1.66,2.49,2.66,3.81Z" fill="#00505f"/><path id="eRuj58Jn2TV87" d="M365.37,386.95c-.39-.57-2.88-4.09-7.18-4.4-2.85-.21-6.73.99-7.16,3.2-.46,2.36,3.14,4.98,5.92,5.95.32.11,5.99,2.11,10.18-1.41c1.48-1.25,2.24-2.72,2.61-3.65-1.47.11-2.92.21-4.37.31Z" fill="#00505f"/><path d="M365.37,386.95c.4.34.79.67,1.19,1.01.12-.38-.53-.69-.41-1.07-.52.04-.26.02-.78.06Z" fill="#002b3f"/></g>
<script><![CDATA[
(function(s,i,u,o,c,w,d,t,n,x,e,p,a,b){(a=Array.from(d.querySelectorAll('svg#' + i.root)).filter(n=> !n.svgatorPlayer)[0]||{}).svgatorPlayer={ready:(function(a){b=[];return function(c){return c?(b.push(c),a.svgatorPlayer):b}})(a)};w[o]=w[o]||{};w[o][s]=w[o][s]||[];w[o][s].push(i);e=d.createElementNS(n,t);e.async=true;e.setAttributeNS(x,'href',[u,s,'.','j','s','?','v','=',c].join(''));e.setAttributeNS(null,'src',[u,s,'.','j','s','?','v','=',c].join(''));p=d.getElementsByTagName(t)[0];p.parentNode.insertBefore(e,p);})('91c80d77',{"root":"eRuj58Jn2TV1","version":"2022-05-04","animations":[{"elements":{"eRuj58Jn2TV2":{"transform":{"data":{"t":{"x":-401.363571,"y":-308.570633}},"keys":{"o":[{"t":0,"v":{"x":401.363571,"y":308.570633,"type":"corner"}},{"t":500,"v":{"x":399.379116,"y":325.068167,"type":"corner"}},{"t":1000,"v":{"x":401.591904,"y":302.009378,"type":"corner"}},{"t":1200,"v":{"x":401.363571,"y":308.570633,"type":"corner","start":{"x":401.363571,"y":308.570633},"end":{"x":401.363571,"y":308.570633}}}]}}},"eRuj58Jn2TV16":{"transform":{"data":{"t":{"x":-419.42659,"y":-318.706696}},"keys":{"o":[{"t":0,"v":{"x":419.42659,"y":318.706696,"type":"corner"}},{"t":500,"v":{"x":416.786629,"y":339.740016,"type":"corner"}},{"t":800,"v":{"x":419.42659,"y":306.000016,"type":"corner"}},{"t":1000,"v":{"x":419.42659,"y":318.706696,"type":"corner","start":{"x":419.42659,"y":318.706696},"end":{"x":419.42659,"y":318.706696}}},{"t":3000,"v":{"x":419.42659,"y":318.706696,"type":"corner","start":{"x":419.42659,"y":318.706696},"end":{"x":419.42659,"y":318.706696}}}]}}},"eRuj58Jn2TV39":{"transform":{"data":{"t":{"x":-425.319305,"y":-235.926643}},"keys":{"o":[{"t":0,"v":{"x":425.319305,"y":235.926643,"type":"corner"}},{"t":500,"v":{"x":423.321196,"y":255.550198,"type":"corner"}},{"t":1000,"v":{"x":425.443298,"y":235.397397,"type":"corner"}},{"t":1200,"v":{"x":425.319305,"y":235.926643,"type":"corner"}}]}}},"eRuj58Jn2TV40":{"transform":{"data":{"t":{"x":-369.595795,"y":-227.792282}},"keys":{"o":[{"t":0,"v":{"x":369.595795,"y":227.792282,"type":"corner"}},{"t":500,"v":{"x":368.206325,"y":254.342284,"type":"corner"}},{"t":1000,"v":{"x":369.618345,"y":230.960638,"type":"corner"}},{"t":1200,"v":{"x":369.595795,"y":227.792282,"type":"corner"}}]}}},"eRuj58Jn2TV41":{"transform":{"data":{"t":{"x":-378.821762,"y":-223.050003}},"keys":{"o":[{"t":0,"v":{"x":378.821762,"y":223.050003,"type":"corner"}},{"t":500,"v":{"x":374.392225,"y":247.109726,"type":"cusp","end":{"x":374.602224,"y":245.305723}}},{"t":1000,"v":{"x":379.669919,"y":213.480605,"type":"cusp","start":{"x":379.555246,"y":214.465716},"end":{"x":379.798909,"y":212.372508}}},{"t":1200,"v":{"x":378.821762,"y":223.050003,"type":"corner","start":{"x":378.821762,"y":223.050003}}}]}}},"eRuj58Jn2TV42":{"transform":{"data":{"t":{"x":-373.690018,"y":-222.694679}},"keys":{"o":[{"t":0,"v":{"x":373.690018,"y":222.694679,"type":"corner"}},{"t":500,"v":{"x":369.953926,"y":247.109985,"type":"cusp","end":{"x":371.111644,"y":239.544315}}},{"t":1000,"v":{"x":374.091202,"y":213.480864,"type":"cusp","start":{"x":373.468941,"y":217.547332},"end":{"x":374.801951,"y":208.836133}}},{"t":1200,"v":{"x":373.690018,"y":222.694679,"type":"corner","start":{"x":373.690018,"y":222.694679}}}]}}},"eRuj58Jn2TV43":{"transform":{"data":{"t":{"x":-368.686768,"y":-222.082573}},"keys":{"o":[{"t":0,"v":{"x":368.686768,"y":222.082573,"type":"corner"}},{"t":500,"v":{"x":368.045898,"y":255.18993,"type":"cusp","end":{"x":368.243719,"y":251.888531}}},{"t":1000,"v":{"x":369.3525,"y":217.922573,"type":"cusp","start":{"x":369.244576,"y":219.723704},"end":{"x":369.474005,"y":215.894769}}},{"t":1200,"v":{"x":368.686768,"y":222.082573,"type":"corner","start":{"x":368.686768,"y":222.082573}}}]}}},"eRuj58Jn2TV44":{"d":[{"t":0,"v":["M",334.55,462.58,"C",332.69,477.52,329.58,492.3,325.25,506.72,"C",325.05,507.39,324.83,508.09,324.31,508.55,"C",323.74,509.06,322.94,509.18,322.19,509.3,"C",317.75,509.97,313.37,510.97,309.08,512.29,"C",307.13,512.89,304.74,514.43,305.45,516.34,"C",305.96,517.7,307.71,518.02,309.16,518.08,"C",313.21,518.24,317.27,517.96,321.26,517.25,"C",323.48,516.85,325.71,516.31,327.64,515.16,"C",332.84,512.06,334.62,505.55,336.41,499.77,"C",339.85,488.62,344.93,477.98,351.42,468.29,"C",345.69,466.5,339.95,464.72,334.55,462.58,"Z"]},{"t":300,"v":["M",328.03,474.386627,"C",313.130001,489.278493,321.035,496.255081,325.25,506.72,"C",325.05,507.39,324.83,508.09,324.31,508.55,"C",323.74,509.06,322.94,509.18,322.19,509.3,"C",317.75,509.97,313.37,510.97,309.08,512.29,"C",307.13,512.89,304.74,514.43,305.45,516.34,"C",305.96,517.7,307.71,518.02,309.16,518.08,"C",313.21,518.24,317.27,517.96,321.26,517.25,"C",323.48,516.85,325.71,516.31,327.64,515.16,"C",332.84,512.06,331.72229,505.950843,331.246665,498.661563,"C",331.163025,497.379726,327.15,483.670132,346.040001,478.571623,"C",340.310001,476.781623,333.43,476.526627,328.03,474.386627,"Z"]},{"t":700,"v":["M",334.55,462.58,"C",332.69,477.52,329.58,492.3,325.25,506.72,"C",325.05,507.39,324.83,508.09,324.31,508.55,"C",323.74,509.06,322.94,509.18,322.19,509.3,"C",317.75,509.97,313.37,510.97,309.08,512.29,"C",307.13,512.89,304.74,514.43,305.45,516.34,"C",305.96,517.7,307.71,518.02,309.16,518.08,"C",313.21,518.24,317.27,517.96,321.26,517.25,"C",323.48,516.85,325.71,516.31,327.64,515.16,"C",332.84,512.06,334.62,505.55,336.41,499.77,"C",339.85,488.62,344.93,477.98,351.42,468.29,"C",345.69,466.5,339.95,464.72,334.55,462.58,"Z"]},{"t":3000,"v":["M",334.55,462.58,"C",332.69,477.52,329.58,492.3,325.25,506.72,"C",325.05,507.39,324.83,508.09,324.31,508.55,"C",323.74,509.06,322.94,509.18,322.19,509.3,"C",317.75,509.97,313.37,510.97,309.08,512.29,"C",307.13,512.89,304.74,514.43,305.45,516.34,"C",305.96,517.7,307.71,518.02,309.16,518.08,"C",313.21,518.24,317.27,517.96,321.26,517.25,"C",323.48,516.85,325.71,516.31,327.64,515.16,"C",332.84,512.06,334.62,505.55,336.41,499.77,"C",339.85,488.62,344.93,477.98,351.42,468.29,"C",345.69,466.5,339.95,464.72,334.55,462.58,"Z"]}]},"eRuj58Jn2TV45":{"d":[{"t":0,"v":["M",395.31,463.27,"C",396.92,480.74,399.64,498.1,403.44,515.23,"C",403.59,515.88,403.78,516.61,404.35,516.96,"C",404.84,517.27,405.48,517.21,406.05,517.12,"C",408.53,516.73,411,516.05,413.5,516.23,"C",416,516.41,418.64,517.71,419.47,520.08,"C",413.51,522.49,407.06,523.68,400.63,523.54,"C",399.71,523.52,398.72,523.45,398,522.88,"C",397.32,522.35,397.01,521.48,396.74,520.67,"C",390.86,503.25,385.18,485.77,379.67,468.29,"C",384.62,465.76,390,464.06,395.31,463.27,"Z"]},{"t":300,"v":["M",396,478.571623,"C",415.42,496.255081,406.05,496.255081,403.44,515.23,"C",403.59,515.88,403.78,516.61,404.35,516.96,"C",404.84,517.27,405.48,517.21,406.05,517.12,"C",408.53,516.73,411,516.05,413.5,516.23,"C",416,516.41,418.64,517.71,419.47,520.08,"C",413.51,522.49,407.06,523.68,400.63,523.54,"C",399.71,523.52,398.72,523.45,398,522.88,"C",397.32,522.35,397.01,521.48,396.74,520.67,"C",398.552246,498.661563,404.678874,496.255081,379.150002,478.571623,"C",384.480001,478.571623,390.69,479.361623,396,478.571623,"Z"]},{"t":700,"v":["M",395.31,463.27,"C",396.92,480.74,399.64,498.1,403.44,515.23,"C",403.59,515.88,403.78,516.61,404.35,516.96,"C",404.84,517.27,405.48,517.21,406.05,517.12,"C",408.53,516.73,411,516.05,413.5,516.23,"C",416,516.41,418.64,517.71,419.47,520.08,"C",413.51,522.49,407.06,523.68,400.63,523.54,"C",399.71,523.52,398.72,523.45,398,522.88,"C",397.32,522.35,397.01,521.48,396.74,520.67,"C",390.86,503.25,385.18,485.77,379.67,468.29,"C",384.62,465.76,390,464.06,395.31,463.27,"Z"]},{"t":3000,"v":["M",395.31,463.27,"C",396.92,480.74,399.64,498.1,403.44,515.23,"C",403.59,515.88,403.78,516.61,404.35,516.96,"C",404.84,517.27,405.48,517.21,406.05,517.12,"C",408.53,516.73,411,516.05,413.5,516.23,"C",416,516.41,418.64,517.71,419.47,520.08,"C",413.51,522.49,407.06,523.68,400.63,523.54,"C",399.71,523.52,398.72,523.45,398,522.88,"C",397.32,522.35,397.01,521.48,396.74,520.67,"C",390.86,503.25,385.18,485.77,379.67,468.29,"C",384.62,465.76,390,464.06,395.31,463.27,"Z"]}]},"eRuj58Jn2TV46":{"transform":{"data":{"t":{"x":-285.810028,"y":-422.047684}},"keys":{"o":[{"t":0,"v":{"x":285.810028,"y":422.047684,"type":"corner"}},{"t":300,"v":{"x":285.980028,"y":441.75911,"type":"corner"}},{"t":700,"v":{"x":285.810028,"y":422.047684,"type":"corner","start":{"x":285.810028,"y":422.047684},"end":{"x":285.810028,"y":422.047684}}},{"t":3000,"v":{"x":285.810028,"y":422.047684,"type":"corner","start":{"x":285.810028,"y":422.047684},"end":{"x":285.810028,"y":422.047684}}}]}}},"eRuj58Jn2TV47":{"transform":{"data":{"t":{"x":-372.078415,"y":-420.082626}},"keys":{"o":[{"t":0,"v":{"x":372.078415,"y":420.082626,"type":"corner"}},{"t":300,"v":{"x":369.823949,"y":432.902076,"type":"corner"}},{"t":700,"v":{"x":372.078415,"y":420.082626,"type":"corner","start":{"x":372.078415,"y":420.082626},"end":{"x":372.078415,"y":420.082626}}},{"t":3000,"v":{"x":372.078415,"y":420.082626,"type":"corner","start":{"x":372.078415,"y":420.082626},"end":{"x":372.078415,"y":420.082626}}}]}}},"eRuj58Jn2TV50":{"transform":{"data":{"t":{"x":-417.362961,"y":-223.109993}},"keys":{"o":[{"t":0,"v":{"x":417.362961,"y":223.109993,"type":"corner"}},{"t":500,"v":{"x":413.754861,"y":258.749993,"type":"cusp","end":{"x":414.87296,"y":247.705663}}},{"t":1000,"v":{"x":416.501074,"y":210.629993,"type":"cusp","start":{"x":415.900195,"y":216.565337},"end":{"x":417.187497,"y":203.849667}}},{"t":1200,"v":{"x":417.362961,"y":223.109993,"type":"corner","start":{"x":417.362961,"y":223.109993}}}]}}},"eRuj58Jn2TV51":{"transform":{"data":{"t":{"x":-365.835007,"y":-222.03849}},"keys":{"o":[{"t":0,"v":{"x":365.835007,"y":222.03849,"type":"corner"}},{"t":500,"v":{"x":365.370012,"y":254.98849,"type":"cusp","end":{"x":365.514523,"y":244.748337}}},{"t":1000,"v":{"x":366.574773,"y":218.351973,"type":"cusp","start":{"x":366.497972,"y":223.794196},"end":{"x":366.663458,"y":212.067682}}},{"t":1200,"v":{"x":365.835007,"y":222.03849,"type":"corner","start":{"x":365.835007,"y":222.03849}}}]}}},"eRuj58Jn2TV52":{"transform":{"data":{"t":{"x":-368.449265,"y":-248.336037}},"keys":{"o":[{"t":0,"v":{"x":368.449265,"y":248.336037,"type":"corner"}},{"t":500,"v":{"x":365.972431,"y":274.063073,"type":"cusp","end":{"x":366.739606,"y":266.094377}}},{"t":1000,"v":{"x":368.655974,"y":244.919909,"type":"cusp","start":{"x":368.242938,"y":249.210139},"end":{"x":369.126986,"y":240.02748}}},{"t":1200,"v":{"x":368.449265,"y":248.336037,"type":"corner","start":{"x":368.449265,"y":248.336037}}}]}}},"eRuj58Jn2TV53":{"transform":{"data":{"t":{"x":-430.593704,"y":-223.55999}},"keys":{"o":[{"t":0,"v":{"x":430.593704,"y":223.55999,"type":"corner"}},{"t":500,"v":{"x":427.871592,"y":251.37499,"type":"cusp","end":{"x":428.782763,"y":247.380031}}},{"t":1000,"v":{"x":429.235444,"y":221.545168,"type":"cusp","start":{"x":428.744556,"y":223.697425},"end":{"x":429.794876,"y":219.092384}}},{"t":1200,"v":{"x":430.593704,"y":223.55999,"type":"corner","start":{"x":430.593704,"y":223.55999}}}]}}},"eRuj58Jn2TV54":{"transform":{"data":{"t":{"x":-424.774048,"y":-224.520386}},"keys":{"o":[{"t":0,"v":{"x":424.774048,"y":224.520386,"type":"corner"}},{"t":500,"v":{"x":415.048194,"y":255.188993,"type":"cusp","end":{"x":417.343161,"y":247.945818}}},{"t":1000,"v":{"x":426.068196,"y":222.033993,"type":"cusp","start":{"x":424.831708,"y":225.936492},"end":{"x":427.477239,"y":217.586891}}},{"t":1200,"v":{"x":424.774048,"y":224.520386,"type":"corner","start":{"x":424.774048,"y":224.520386}}}]}}},"eRuj58Jn2TV55":{"transform":{"data":{"t":{"x":-442.667191,"y":-229.300003}},"keys":{"o":[{"t":0,"v":{"x":442.667191,"y":229.300003,"type":"corner"}},{"t":500,"v":{"x":438.406299,"y":256.017266,"type":"cusp","end":{"x":439.727304,"y":247.734113}}},{"t":1000,"v":{"x":441.25289,"y":230.900003,"type":"cusp","start":{"x":440.544243,"y":235.343475},"end":{"x":442.063831,"y":225.81512}}},{"t":1200,"v":{"x":442.667191,"y":229.300003,"type":"corner","start":{"x":442.667191,"y":229.300003}}}]}}},"eRuj58Jn2TV56":{"transform":{"data":{"t":{"x":-437.809982,"y":-229.729996}},"keys":{"o":[{"t":0,"v":{"x":437.809982,"y":229.729996,"type":"corner"}},{"t":500,"v":{"x":434.82909,"y":250.78,"type":"corner"}},{"t":1000,"v":{"x":438.403262,"y":225.549996,"type":"corner"}},{"t":1200,"v":{"x":437.809982,"y":229.729996,"type":"corner"}}]}}},"eRuj58Jn2TV57":{"transform":{"data":{"t":{"x":-409.414993,"y":-232.862213}},"keys":{"o":[{"t":0,"v":{"x":409.414993,"y":232.862213,"type":"corner"}},{"t":500,"v":{"x":408.244621,"y":248.22759,"type":"cusp","end":{"x":408.502273,"y":246.344238}}},{"t":1000,"v":{"x":409.879141,"y":228.074789,"type":"cusp","start":{"x":409.741601,"y":229.080159},"end":{"x":410.037283,"y":226.918821}}},{"t":1200,"v":{"x":409.414993,"y":232.862213,"type":"corner","start":{"x":409.414993,"y":232.862213}}}]}}},"eRuj58Jn2TV58":{"transform":{"data":{"t":{"x":-423.891754,"y":-255.444298}},"keys":{"o":[{"t":0,"v":{"x":423.891754,"y":255.444298,"type":"corner"}},{"t":500,"v":{"x":421.727081,"y":274.584542,"type":"cusp","end":{"x":422.398202,"y":268.650424}}},{"t":1000,"v":{"x":424.242698,"y":254.935296,"type":"cusp","start":{"x":423.882693,"y":258.118497},"end":{"x":424.654687,"y":251.292451}}},{"t":1200,"v":{"x":423.891754,"y":255.444298,"type":"corner","start":{"x":423.891754,"y":255.444298}}}]}}},"eRuj58Jn2TV59":{"transform":{"data":{"t":{"x":-406.578964,"y":-213.278847}},"keys":{"o":[{"t":0,"v":{"x":406.578964,"y":213.278847,"type":"corner"}},{"t":500,"v":{"x":406.59295,"y":229.774721,"type":"cusp","end":{"x":406.631462,"y":227.412101}}},{"t":1000,"v":{"x":407.878387,"y":209.105384,"type":"cusp","start":{"x":407.857872,"y":210.36397},"end":{"x":407.902023,"y":207.65535}}},{"t":1200,"v":{"x":406.578964,"y":213.278847,"type":"corner","start":{"x":406.578964,"y":213.278847}}}]}}},"eRuj58Jn2TV60":{"transform":{"data":{"t":{"x":-281.229996,"y":-427.925003}},"keys":{"o":[{"t":0,"v":{"x":281.229996,"y":427.925003,"type":"corner"}},{"t":300,"v":{"x":281.229997,"y":449.475003,"type":"corner"}},{"t":700,"v":{"x":281.229996,"y":427.925003,"type":"corner"}},{"t":3000,"v":{"x":281.229996,"y":427.925003,"type":"corner","start":{"x":281.229996,"y":427.925003},"end":{"x":281.229996,"y":427.925003}}}]}}},"eRuj58Jn2TV61":{"transform":{"data":{"t":{"x":-373.700012,"y":-390.303543}},"keys":{"o":[{"t":0,"v":{"x":373.700012,"y":390.303543,"type":"corner"}},{"t":300,"v":{"x":370.617704,"y":408.33599,"type":"corner"}},{"t":700,"v":{"x":373.700012,"y":390.303543,"type":"corner","start":{"x":373.700012,"y":390.303543},"end":{"x":373.700012,"y":390.303543}}},{"t":3000,"v":{"x":373.700012,"y":390.303543,"type":"corner","start":{"x":373.700012,"y":390.303543}}}]}}},"eRuj58Jn2TV62":{"transform":{"data":{"t":{"x":-369.924484,"y":-426.7034}},"keys":{"o":[{"t":0,"v":{"x":369.924484,"y":426.7034,"type":"corner"}},{"t":300,"v":{"x":368.686929,"y":444.153521,"type":"corner"}},{"t":700,"v":{"x":369.924484,"y":426.7034,"type":"corner","start":{"x":369.924484,"y":426.7034},"end":{"x":369.924484,"y":426.7034}}},{"t":3000,"v":{"x":369.924484,"y":426.7034,"type":"corner","start":{"x":369.924484,"y":426.7034}}}]}}},"eRuj58Jn2TV67":{"transform":{"data":{"t":{"x":-372.091766,"y":-333.644928}},"keys":{"o":[{"t":0,"v":{"x":372.091766,"y":333.644928,"type":"corner"}},{"t":300,"v":{"x":371.424316,"y":349.901225,"type":"cusp","end":{"x":371.479926,"y":348.546797}}},{"t":700,"v":{"x":372.091766,"y":333.644928,"type":"corner","start":{"x":372.091766,"y":333.644928},"end":{"x":372.091766,"y":333.644928}}},{"t":3000,"v":{"x":372.091766,"y":333.644928,"type":"corner","start":{"x":372.091766,"y":333.644928}}}]}}},"eRuj58Jn2TV81":{"transform":{"data":{"t":{"x":-435.114548,"y":-429.048737}},"keys":{"o":[{"t":0,"v":{"x":435.114548,"y":429.048737,"type":"corner"}},{"t":300,"v":{"x":433.404242,"y":444.15314,"type":"corner"}},{"t":700,"v":{"x":435.114548,"y":429.048737,"type":"corner","start":{"x":435.114548,"y":429.048737},"end":{"x":435.114548,"y":429.048737}}},{"t":3000,"v":{"x":435.114548,"y":429.048737,"type":"corner","start":{"x":435.114548,"y":429.048737},"end":{"x":435.114548,"y":429.048737}}}]}}},"eRuj58Jn2TV82":{"transform":{"data":{"t":{"x":-288.035324,"y":-436.681931}},"keys":{"o":[{"t":0,"v":{"x":288.035324,"y":436.681931,"type":"corner"}},{"t":300,"v":{"x":290.270006,"y":457.502124,"type":"corner"}},{"t":700,"v":{"x":288.035324,"y":436.681931,"type":"corner","start":{"x":288.035324,"y":436.681931},"end":{"x":288.035324,"y":436.681931}}},{"t":3000,"v":{"x":288.035324,"y":436.681931,"type":"corner","start":{"x":288.035324,"y":436.681931},"end":{"x":288.035324,"y":436.681931}}}]}}},"eRuj58Jn2TV84":{"d":[{"t":0,"v":["M",353.14,396.14,"C",366.25,399.88,377.61,393.58,385.5,383.25,"C",385.56,383.16,385.72,383.24,385.68,383.34,"C",381.418208,394.426933,372.091996,398.340646,362.71,398.340646,"C",359.410545,398.340646,356.05,397.47,353.08,396.33,"C",352.97,396.29,353.02,396.11,353.14,396.14,"L",353.14,396.14,"Z"]},{"t":300,"v":["M",353.14,396.14,"C",366.25,399.88,377.61,393.58,385.5,383.25,"C",385.56,383.16,385.72,383.24,385.68,383.34,"C",381.418208,394.426933,375.184154,402.744859,363.902532,399.057314,"C",360.546219,398.105014,356.05,397.47,353.08,396.33,"C",352.97,396.29,353.02,396.11,353.14,396.14,"L",353.14,396.14,"Z"]},{"t":700,"v":["M",353.14,396.14,"C",366.25,399.88,377.61,393.58,385.5,383.25,"C",385.56,383.16,385.72,383.24,385.68,383.34,"C",381.418208,394.426933,372.091996,398.340646,362.71,398.340646,"C",359.410545,398.340646,356.05,397.47,353.08,396.33,"C",352.97,396.29,353.02,396.11,353.14,396.14,"L",353.14,396.14,"Z"]},{"t":3000,"v":["M",353.14,396.14,"C",366.25,399.88,377.61,393.58,385.5,383.25,"C",385.56,383.16,385.72,383.24,385.68,383.34,"C",381.418208,394.426933,372.091996,398.340646,362.71,398.340646,"C",359.410545,398.340646,356.05,397.47,353.08,396.33,"C",352.97,396.29,353.02,396.11,353.14,396.14,"L",353.14,396.14,"Z"]}],"transform":{"data":{"t":{"x":-369.352646,"y":-390.666412}},"keys":{"o":[{"t":0,"v":{"x":369.352646,"y":390.364535,"type":"corner"}},{"t":300,"v":{"x":368.302392,"y":407.05139,"type":"cusp","end":{"x":368.39036,"y":405.653713}}},{"t":700,"v":{"x":369.352646,"y":390.364535,"type":"corner","start":{"x":369.352646,"y":390.364535},"end":{"x":369.352646,"y":390.364535}}},{"t":3000,"v":{"x":369.352646,"y":390.364535,"type":"corner","start":{"x":369.352646,"y":390.364535}}}]}}},"eRuj58Jn2TV85":{"transform":{"data":{"t":{"x":-385.589996,"y":-383.552444}},"keys":{"o":[{"t":0,"v":{"x":385.589996,"y":383.552444,"type":"corner"}},{"t":300,"v":{"x":384.636021,"y":398.994076,"type":"corner"}},{"t":700,"v":{"x":385.589996,"y":383.552444,"type":"corner","start":{"x":385.589996,"y":383.552444},"end":{"x":385.589996,"y":383.552444}}},{"t":3000,"v":{"x":385.589996,"y":383.552444,"type":"corner","start":{"x":385.589996,"y":383.552444}}}]}}},"eRuj58Jn2TV86":{"transform":{"data":{"t":{"x":-446.945007,"y":-431.505005}},"keys":{"o":[{"t":0,"v":{"x":446.945007,"y":431.505005,"type":"corner"}},{"t":300,"v":{"x":445.898087,"y":447.384097,"type":"corner"}},{"t":700,"v":{"x":446.945007,"y":431.505005,"type":"corner"}},{"t":3000,"v":{"x":446.945007,"y":431.505005,"type":"corner","start":{"x":446.945007,"y":431.505005},"end":{"x":446.945007,"y":431.505005}}}]}}},"eRuj58Jn2TV87":{"transform":{"data":{"t":{"x":-360.36499,"y":-387.445618}},"keys":{"o":[{"t":0,"v":{"x":360.36499,"y":387.445618,"type":"corner"}},{"t":300,"v":{"x":360.364991,"y":403.924679,"type":"cusp","end":{"x":360.364991,"y":402.007356}}},{"t":700,"v":{"x":360.36499,"y":387.445618,"type":"corner","start":{"x":360.36499,"y":387.445618},"end":{"x":360.36499,"y":387.445618}}},{"t":3000,"v":{"x":360.36499,"y":387.445618,"type":"corner","start":{"x":360.36499,"y":387.445618}}}]}}}},"s":"MDTA1ZFY5NjNkNH2Y5MDhkN2M4YZjg0OGE4OTNTkNTU0ZVI0YkNI0YjRiNDczZJFg3Zjg0OGQ4DMDdlOGY4NDhYhVTg5M2Q1NTDRjNDdNM2Q4NNDhmODA4ZFU3CYzhmODQ4YTgX5OGUzZDU1NGTI0NzNkODE4NLDg3SDg3M2Q1GNTRjNDczZDdYjODc4ZjgwOGJQ4OTdjRDhmOIDAzZDU1ODE3KYzg3OGVZODAR0NzNkOGU4YjFgwODA3ZjNkVMjU1NGM0NzNkAODE4YjhlM2QH1NTRjNGI0YjRk4"}],"options":"MDPAxMDgyMjk3YJTdiNjg3OVg3VYjI5SjQxMjkK3Mzc2Njg2YjWI5ODQ/"},'https://cdn.svgator.com/ply/','__SVGATOR_PLAYER__','2022-05-04',window,document,'script','http://www.w3.org/2000/svg','http://www.w3.org/1999/xlink')
]]></script>
</svg>
