<svg width="1171" height="659" viewBox="0 0 1171 659" fill="none" xmlns="http://www.w3.org/2000/svg">
<path d="M567.691 137.803C505.177 158.745 479.857 154.597 398.739 169.083C317.152 186.067 268.368 218.125 288.55 344.916C308.732 471.707 646.543 453.195 837.573 450.554C1028.6 447.912 1176.92 353.348 1170.82 222.33C1164.72 91.313 1017.34 24.7477 857.286 2.55932C697.234 -19.6291 653.815 108.952 567.691 137.803Z" fill="#96B6BC"/>
<path d="M978 40H1141" stroke="#1D5B79" stroke-width="2"/>
<path d="M653.588 250H555.306C492.405 244.302 468 186.491 468 142.034C468 97.578 485.209 39.1126 555.306 37H693" stroke="#1D5B79" stroke-width="2"/>
<path d="M916 425.883H1063.62C1113.83 428.6 1141 383.411 1141 342.938C1141 302.465 1124.71 253.248 1063.62 250H970.365" stroke="#1D5B79" stroke-width="2"/>
<path d="M628 426H242.585C154.399 426 60.5 426 22.0593 505.166C5.2267 532.36 0.999999 575.5 1 659" stroke="#1D5B79" stroke-width="2"/>
<circle cx="1033" cy="251" r="8" fill="#EE5007"/>
<circle cx="271" cy="426" r="8" fill="#EE5007"/>
<circle cx="596" cy="37" r="8" fill="#EE5007"/>
<circle cx="478" cy="191" r="8" fill="#EE5007"/>
<circle cx="1128" cy="390" r="8" fill="#EE5007"/>
<circle cx="586" cy="426" r="8" fill="#EE5007"/>
</svg>
