<svg width="20" height="16" viewBox="0 0 20 16" fill="none" xmlns="http://www.w3.org/2000/svg">
<path d="M20 4.25387V13.2C20 14.7467 18.7632 16 17.2368 16H2.76316C2.03032 16 1.3275 15.705 0.80931 15.1799C0.291117 14.6548 0 13.9426 0 13.2V4.25387L9.68316 9.6512C9.88053 9.76107 10.12 9.76107 10.3168 9.6512L20 4.25387ZM17.2368 1.20417e-08C17.9581 6.79229e-05 18.6508 0.285948 19.1669 0.796574C19.683 1.3072 19.9816 2.00209 19.9989 2.7328L10 8.30613L0.00105256 2.73227L0.00210536 2.68427C0.0315804 1.96227 0.335372 1.27978 0.849952 0.779507C1.36453 0.279238 2.05005 -6.69616e-05 2.76316 1.20417e-08H17.2368Z" fill="#FAFAFA"/>
</svg>
