<svg width="36" height="35" viewBox="0 0 36 35" fill="none" xmlns="http://www.w3.org/2000/svg">
<g clip-path="url(#clip0_269_1882)">
<path d="M35.319 15.9395L19.6005 0.659127C19.1647 0.237012 18.5746 0 17.9595 0C17.3444 0 16.7543 0.237012 16.3185 0.659127L13.062 3.831L17.202 7.856C17.6904 7.69513 18.2155 7.67066 18.7175 7.78539C19.2195 7.90013 19.6784 8.14945 20.042 8.50504C20.4055 8.86063 20.6592 9.30823 20.7742 9.79699C20.8892 10.2857 20.8609 10.7961 20.6925 11.27L24.6795 15.1491C25.2696 14.9497 25.9118 14.9509 26.501 15.1527C27.0902 15.3545 27.5915 15.7449 27.9227 16.2599C28.2538 16.7749 28.3953 17.384 28.3239 17.9873C28.2524 18.5907 27.9724 19.1526 27.5295 19.581C27.2736 19.8302 26.9696 20.0279 26.635 20.1628C26.3004 20.2977 25.9417 20.3672 25.5795 20.3672C25.2173 20.3672 24.8586 20.2977 24.524 20.1628C24.1894 20.0279 23.8854 19.8302 23.6295 19.581C23.246 19.2071 22.984 18.7317 22.8763 18.2142C22.7685 17.6966 22.8197 17.1597 23.0235 16.6702L19.29 13.0593V22.575C19.554 22.7004 19.803 22.871 20.022 23.0825C20.5357 23.5871 20.8239 24.2683 20.8239 24.9783C20.8239 25.6883 20.5357 26.3695 20.022 26.8741C19.7651 27.1241 19.4601 27.3224 19.1243 27.4577C18.7886 27.593 18.4287 27.6626 18.0653 27.6626C17.7018 27.6626 17.3419 27.593 17.0062 27.4577C16.6704 27.3224 16.3654 27.1241 16.1085 26.8741C15.8521 26.6257 15.6486 26.3304 15.5098 26.0053C15.371 25.6803 15.2995 25.3317 15.2995 24.9798C15.2995 24.6278 15.371 24.2792 15.5098 23.9542C15.6486 23.6291 15.8521 23.3339 16.1085 23.0854C16.3815 22.8229 16.689 22.6245 17.016 22.4933V12.8843C16.6793 12.7505 16.3732 12.5531 16.1155 12.3035C15.8577 12.0539 15.6535 11.757 15.5146 11.4302C15.3756 11.1033 15.3047 10.7529 15.306 10.3992C15.3073 10.0456 15.3807 9.69566 15.522 9.36975L11.454 5.39579L0.675 15.8681C-0.225 16.7504 -0.225 18.1781 0.675 19.0604L16.395 34.3393C16.6102 34.5488 16.8658 34.7149 17.1471 34.8283C17.4284 34.9417 17.73 35 18.0345 35C18.339 35 18.6406 34.9417 18.9219 34.8283C19.2032 34.7149 19.4588 34.5488 19.674 34.3393L35.319 19.1289C35.5348 18.9197 35.7061 18.6712 35.8229 18.3976C35.9398 18.1239 35.9999 17.8305 35.9999 17.5342C35.9999 17.2379 35.9398 16.9446 35.8229 16.6709C35.7061 16.3973 35.5348 16.1487 35.319 15.9395Z" fill="#FAFAFA"/>
</g>
<defs>
<clipPath id="clip0_269_1882">
<rect width="36" height="35" fill="white"/>
</clipPath>
</defs>
</svg>
