<svg width="28" height="22" viewBox="0 0 28 22" fill="none" xmlns="http://www.w3.org/2000/svg">
<path d="M27.5132 5.84907V18.15C27.5132 20.2767 25.8118 22 23.7121 22H3.80117C2.79304 22 1.82619 21.5944 1.11334 20.8724C0.400479 20.1503 0 19.1711 0 18.15V5.84907L13.3207 13.2704C13.5923 13.4215 13.9217 13.4215 14.1925 13.2704L27.5132 5.84907ZM23.7121 1.65574e-08C24.7043 9.3394e-05 25.6572 0.393179 26.3672 1.09529C27.0772 1.7974 27.488 2.75287 27.5118 3.7576L13.7566 11.4209L0.00144796 3.75687L0.00289626 3.69087C0.0434439 2.69812 0.461358 1.75969 1.16925 1.07182C1.87713 0.383952 2.82018 -9.20721e-05 3.80117 1.65574e-08H23.7121Z" fill="#1D5B79"/>
</svg>
