<svg width="61" height="61" viewBox="0 0 61 61" fill="none" xmlns="http://www.w3.org/2000/svg">
<g id="Layer_1" clip-path="url(#clip0_136_842)">
<path id="Vector" d="M30.5 61C47.3447 61 61 47.3447 61 30.5C61 13.6553 47.3447 0 30.5 0C13.6553 0 0 13.6553 0 30.5C0 47.3447 13.6553 61 30.5 61Z" fill="#1D5B79"/>
<path id="Vector_2" d="M17.2275 37.0091L23.1325 43.1218L43.5051 23.4414L37.6 17.3287L17.2275 37.0091Z" fill="#FAFAFA"/>
<path id="Vector_3" d="M22.3371 43.8897C19.7416 44.589 16.8996 45.0373 14.3042 45.7366C14.9317 42.9977 15.8059 40.5143 16.4289 37.7754L22.3326 43.8897H22.3371Z" fill="#FAFAFA"/>
<path id="Vector_4" d="M44.1971 22.8295L38.292 16.7167L39.3141 15.7295C41.0002 14.1006 43.6941 14.1471 45.3229 15.8333C46.9518 17.5195 46.9053 20.2133 45.2191 21.8422L44.1971 22.8295Z" fill="#FAFAFA"/>
<path id="Vector_5" d="M25.4346 26.3312C22.6419 26.896 19.7685 27.0394 16.9355 26.757C15.8596 26.6494 14.739 26.4657 13.8604 25.8291C12.8742 25.1209 12.3183 23.9105 12.2197 22.7002C12.009 20.1182 13.7438 17.6662 15.9941 16.3842C18.2444 15.1021 20.9161 14.7883 23.5071 14.757C26.098 14.7256 28.7025 14.9407 31.271 14.5956" stroke="#FAFAFA" stroke-miterlimit="10"/>
<path id="Vector_6" d="M27.9449 43.8807C34.0189 44.2349 40.5591 44.4725 45.6603 41.1643C47.0589 40.2588 48.3679 38.9902 48.6951 37.354C49.121 35.2203 47.7134 33.0641 45.8576 31.93C44.0018 30.7959 41.7828 30.4686 39.6267 30.1638" stroke="#FAFAFA" stroke-miterlimit="10"/>
<path id="Vector_7" d="M31.8717 45.4675C32.6416 45.4675 33.2658 44.8434 33.2658 44.0734C33.2658 43.3035 32.6416 42.6793 31.8717 42.6793C31.1017 42.6793 30.4776 43.3035 30.4776 44.0734C30.4776 44.8434 31.1017 45.4675 31.8717 45.4675Z" fill="#EE5007"/>
<path id="Vector_8" d="M48.7758 37.3495C49.5457 37.3495 50.1699 36.7253 50.1699 35.9554C50.1699 35.1854 49.5457 34.5613 48.7758 34.5613C48.0059 34.5613 47.3817 35.1854 47.3817 35.9554C47.3817 36.7253 48.0059 37.3495 48.7758 37.3495Z" fill="#EE5007"/>
<path id="Vector_9" d="M25.7932 17.1821C26.984 17.1821 27.9494 16.2167 27.9494 15.0259C27.9494 13.8351 26.984 12.8698 25.7932 12.8698C24.6024 12.8698 23.6371 13.8351 23.6371 15.0259C23.6371 16.2167 24.6024 17.1821 25.7932 17.1821Z" fill="#EE5007"/>
<path id="Vector_10" d="M48.7758 38.1115C49.9666 38.1115 50.932 37.1462 50.932 35.9554C50.932 34.7645 49.9666 33.7992 48.7758 33.7992C47.585 33.7992 46.6196 34.7645 46.6196 35.9554C46.6196 37.1462 47.585 38.1115 48.7758 38.1115Z" fill="#EE5007"/>
<path id="Vector_11" d="M31.8717 46.2297C33.0625 46.2297 34.0278 45.2643 34.0278 44.0735C34.0278 42.8827 33.0625 41.9174 31.8717 41.9174C30.6809 41.9174 29.7155 42.8827 29.7155 44.0735C29.7155 45.2643 30.6809 46.2297 31.8717 46.2297Z" fill="#EE5007"/>
<path id="Vector_12" d="M17.3972 29.0521C18.588 29.0521 19.5534 28.0867 19.5534 26.8959C19.5534 25.7051 18.588 24.7397 17.3972 24.7397C16.2064 24.7397 15.241 25.7051 15.241 26.8959C15.241 28.0867 16.2064 29.0521 17.3972 29.0521Z" fill="#EE5007"/>
</g>
<defs>
<clipPath id="clip0_136_842">
<rect width="61" height="61" fill="white"/>
</clipPath>
</defs>
</svg>
