<svg width="1142" height="1102" viewBox="0 0 1142 1102" fill="none" xmlns="http://www.w3.org/2000/svg">
<g clip-path="url(#clip0_537_859)">
<path d="M155.82 766.252C152.766 784.297 143.104 801.145 129.081 812.872C128.373 813.459 127.62 814.091 127.366 814.978C127.133 815.787 127.366 816.651 127.609 817.461C129.081 822.382 130.841 827.226 132.855 831.948C133.408 833.233 134.006 834.552 135.024 835.495C136.076 836.47 137.481 836.969 138.876 837.323C144.952 838.897 151.548 838.343 157.281 835.783C158.698 837.434 159.218 839.795 158.631 841.89C147.708 846.468 135.533 848.009 123.824 846.302C118.412 836.237 113 826.162 107.599 816.097C107.223 815.399 106.835 814.634 106.924 813.836C107.023 813.016 107.61 812.34 108.185 811.741C111.561 808.128 114.937 804.503 118.312 800.89C120.957 798.052 123.636 795.181 125.606 791.834C131.449 781.936 130.409 769.588 129.181 758.16C138.433 760.222 147.298 763.99 155.831 766.229L155.82 766.252Z" fill="#006E7F"/>
<path d="M226.077 741.578C244.593 754.657 263.707 766.894 283.319 778.256C283.994 778.644 284.724 779.043 285.499 778.976C286.417 778.888 287.126 778.178 287.735 777.491C290.889 773.977 293.766 770.209 296.312 766.24C295.216 763.303 293.268 760.776 291.686 758.071C290.103 755.367 288.874 752.23 289.439 749.138C290.003 746.045 292.958 743.263 296.035 743.873C298.714 744.405 300.34 747.076 301.624 749.492C304.137 754.203 306.649 758.903 309.161 763.614C310.047 765.287 310.965 767.016 311.076 768.901C311.198 770.885 310.434 772.813 309.482 774.554C306.018 780.883 300.13 785.46 294.32 789.739C292.969 790.737 291.509 791.767 289.837 791.911C288.631 792.022 287.436 791.645 286.274 791.28C258.306 782.401 231.08 771.184 204.982 757.783C212.42 751.454 220.366 745.713 226.077 741.578Z" fill="#006E7F"/>
<path d="M296.312 766.24C296.423 766.839 296.677 767.748 297.286 768.734C297.872 769.699 298.57 770.33 299.035 770.707C298.492 770.674 297.242 770.53 296.079 769.61C295.526 769.178 295.161 768.701 294.928 768.324C295.393 767.626 295.847 766.927 296.312 766.24Z" fill="#002B3F"/>
<path d="M68.4418 629.872C67.0473 663.468 76.0895 697.43 93.9968 725.872C104.179 742.055 117.604 756.786 134.836 765.021C166.478 780.14 206.809 769.599 231.024 744.216C255.24 718.834 264.271 681.347 259.866 646.52C258.228 633.585 254.831 620.716 248.345 609.41C239.004 593.094 223.808 580.924 207.771 571.159C200.245 566.581 192.365 562.391 183.854 560.141C166.678 555.597 148.117 559.354 132.18 567.202C116.243 575.06 102.541 586.754 89.4591 598.803C79.0113 608.424 68.8624 619.841 68.4418 629.894V629.872Z" fill="#468B97"/>
<path d="M76.5875 685.37C76.7868 687.499 77.1963 690.037 78.0153 692.819C78.6129 694.858 80.1956 698.86 80.9039 700.389C100.261 684.207 125.44 665.219 156.351 648.294C190.074 629.827 225.568 617.358 251.212 609.699C248.876 607.36 241.35 604.289 239.015 601.951C213.017 608.18 179.195 619.12 142.827 639.171C115.39 654.29 93.4213 670.784 76.5875 685.37Z" fill="#006E7F"/>
<path d="M220.045 569.186C211.844 554.643 203.499 539.912 191.823 527.997C180.147 516.081 164.53 507.081 147.852 506.904C137.537 506.793 127.454 510.029 118.013 514.208C95.7344 524.073 76.2444 539.181 57.009 554.133C38.1831 568.765 19.1358 583.606 4.52663 602.461C2.44593 605.143 0.398429 608.069 0.0442665 611.45C-0.309896 614.83 1.71547 618.688 5.06894 619.175C6.67374 619.408 8.27853 618.865 9.78372 618.278C17.2433 615.385 24.1937 611.195 30.2477 605.952C26.1969 616.094 31.4762 627.533 37.9507 636.334C43.0418 643.261 48.9518 649.579 55.5149 655.133C56.9094 656.319 58.4146 657.494 60.1965 657.904C62.3657 658.391 64.6014 657.66 66.6931 656.895C83.1838 650.854 98.5899 642.22 113.907 633.618C129.867 624.662 145.826 615.706 161.775 606.75C172.886 600.51 184.02 594.258 194.501 587.009C203.599 580.713 212.176 573.664 220.045 569.186Z" fill="#B22727"/>
<path d="M30.2366 605.952C35.1949 601.751 40.1421 597.55 45.1003 593.349C42.9643 595.533 37.5744 601.651 36.5783 610.918C34.7743 627.577 48.8633 638.529 49.6934 639.16C47.2806 640.125 44.8568 641.089 42.4441 642.042C40.9832 640.479 33.3355 630.703 31.0334 624.363C27.9899 615.972 28.2555 611.328 30.2366 605.952Z" fill="#740600"/>
<path d="M41.8465 642.463C39.8543 643.838 39.0353 646.376 39.799 648.671C42.7097 657.349 47.1921 667.813 54.1868 678.775C58.3039 685.226 62.5871 690.735 66.6599 695.379C68.5857 697.574 71.8949 697.818 74.1416 695.967C94.0964 679.474 119.829 660.974 151.592 643.949C185.669 625.682 217.389 614.088 243.497 606.551C246.342 605.73 247.991 602.782 247.216 599.922C245.412 593.316 242.656 585.502 238.34 577.2C232.74 566.404 226.276 558.146 220.798 552.205C219.282 550.564 216.935 549.999 214.866 550.808C186.223 561.948 154.702 576.014 121.5 593.848C91.6062 609.898 65.0662 626.469 41.8354 642.474L41.8465 642.463Z" fill="#9F2727"/>
<path d="M280.109 686.168C281.304 672.978 280.02 659.577 276.357 646.853C316.333 639.482 356.973 635.735 397.624 635.702C397.724 647.939 398.853 660.165 400.989 672.213C382.86 673.687 364.721 675.162 346.592 676.636C324.069 678.465 301.458 680.316 280.109 686.168Z" fill="#004A47"/>
<path d="M276.357 646.853L277.685 651.94C290.28 649.712 303.771 647.739 318.093 646.221C333.255 644.614 347.621 643.694 361.046 643.261C360.836 641.1 360.614 638.927 360.404 636.766C338.568 636.522 314.418 638.395 288.742 643.926C284.514 644.835 280.386 645.811 276.346 646.853H276.357Z" fill="#003147"/>
<path d="M362.186 640.246C362.23 630.049 361.81 619.851 360.902 609.687C324.18 611.04 287.535 614.498 251.212 620.051C252.274 629.473 253.325 638.894 254.388 648.327C290.535 644.868 326.748 642.053 362.186 640.246Z" fill="#387034"/>
<path d="M360.736 608.135C361.588 609.576 361.898 611.527 361.278 614.21C350.1 614.841 337.572 616.172 324.014 618.643C311.939 620.849 300.971 623.598 291.221 626.524C291.165 623.676 291.11 620.827 291.055 617.989C316.444 609.089 354.549 597.672 360.736 608.135Z" fill="#384223"/>
<path d="M288.089 622.612C289.052 607.969 290.003 593.316 290.966 578.674C324.169 580.602 357.493 571.27 390.519 575.216C389.733 586.355 390.065 597.572 391.504 608.645C356.409 609.355 321.402 613.755 288.078 622.6L288.089 622.612Z" fill="#468B97"/>
<path d="M290.955 578.674C290.734 580.58 290.524 582.487 290.302 584.404C300.02 584.737 310.257 584.815 320.959 584.571C330.367 584.349 339.387 583.895 348.008 583.252C347.676 581.057 347.355 578.873 347.023 576.679C328.33 577.344 309.637 578.009 290.944 578.674H290.955Z" fill="#33576D"/>
<path d="M348.861 580.07L348.628 539.68C320.229 538.427 291.741 539.292 263.463 542.262C265.046 554.677 265.81 567.179 265.765 579.694C293.678 581.766 321.767 581.279 348.85 580.059L348.861 580.07Z" fill="#004A47"/>
<path d="M263.342 539.979C263.541 542.063 263.751 544.158 263.95 546.241C277.741 545.199 292.317 544.49 307.612 544.246C321.944 544.013 335.646 544.213 348.673 544.734C348.673 543.049 348.65 541.353 348.639 539.668C340.726 539.491 332.735 539.38 324.667 539.314C303.749 539.159 283.296 539.391 263.342 539.968V539.979Z" fill="#003147"/>
<path d="M238.561 494.212C239.668 510.805 240.775 527.387 241.893 543.98C289.782 540.212 337.76 537.729 385.594 537.042C384.166 519.828 382.739 502.625 381.189 485.567C333.001 484.491 284.724 488.038 238.572 494.212H238.561Z" fill="#387034"/>
<path d="M238.716 496.418C238.827 498.424 238.938 500.442 239.048 502.448C256.004 499.732 273.834 497.404 292.494 495.642C309.615 494.024 326.106 492.993 341.899 492.439C341.678 489.235 341.456 486.043 341.246 482.84C307.07 487.362 272.893 491.885 238.727 496.407L238.716 496.418Z" fill="#384223"/>
<path d="M242.391 495.897C237.278 496.329 232.153 496.762 226.985 497.282C226.885 485.622 226.088 473.961 224.605 462.401C263.386 458.676 302.233 455.562 341.113 453.068C341.711 464.385 342.298 475.713 342.895 487.03C342.928 487.628 342.951 488.26 342.63 488.77C342.143 489.546 341.091 489.679 340.173 489.723C321.579 490.809 302.986 491.907 284.392 492.993C275.992 493.481 267.569 493.979 259.236 495.143C248.389 496.662 237.333 499.3 226.631 496.961" fill="#004A47"/>
<path d="M224.605 461.791C224.826 463.631 225.037 465.46 225.258 467.3C238.661 468.286 254.023 468.586 270.934 467.444C284.901 466.502 297.64 464.75 308.973 462.622C308.863 460.727 308.752 458.831 308.63 456.936C280.618 458.554 252.606 460.162 224.605 461.78V461.791Z" fill="#003147"/>
<path d="M308.785 459.275C307.866 448.179 306.937 437.084 306.018 426C286.318 429.414 266.485 432.85 246.486 432.795C225.214 432.75 203.876 428.76 182.759 431.354C183.843 440.986 184.917 450.618 186.001 460.239C186.112 461.248 186.267 462.334 186.975 463.054C187.794 463.875 189.089 463.941 190.251 463.952C216.504 464.252 242.767 464.085 269.03 463.93C282.92 463.841 296.91 463.753 308.774 459.264L308.785 459.275Z" fill="#468B97"/>
<path d="M113.299 669.852C111.251 666.538 109.525 662.271 111.473 658.901C113.553 655.288 118.954 654.922 122.551 657.039C126.148 659.156 128.339 662.958 130.387 666.583C138.721 681.391 147.055 696.211 155.389 711.019C192.62 697.652 232.828 695.191 271.011 684.883C266.086 681.236 262.124 676.281 259.667 670.662C259.169 669.52 258.715 668.256 259.003 667.037C259.557 664.731 262.6 663.812 264.791 664.676C266.983 665.541 268.466 667.602 269.717 669.62C272.483 674.109 274.73 678.919 276.39 683.918C290.225 679.895 304.447 677.168 318.79 675.782C323.007 675.372 327.556 675.151 331.197 677.334C333.078 678.465 334.705 680.693 333.931 682.754C333.322 684.384 331.507 685.16 329.869 685.725C319.819 689.172 309.228 691.034 298.603 691.223C292.073 691.334 285.499 690.824 279.035 691.755C272.251 692.73 265.799 695.28 259.313 697.496C244.438 702.573 229.065 705.987 213.737 709.401C196.803 713.169 179.881 716.938 162.948 720.696C158.322 721.726 153.053 722.635 148.892 720.319C148.239 713.38 143.314 707.694 138.632 702.529C132.778 696.067 126.912 689.616 121.057 683.153C116.785 678.443 112.303 673.311 111.461 666.993C110.853 662.426 112.236 657.848 113.321 669.852H113.299Z" fill="#006E7F"/>
<path d="M239.436 607.725C241.682 607.016 242.966 604.622 243.575 602.35C244.184 600.077 244.328 597.672 245.213 595.488C246.53 592.263 249.574 589.769 253.016 589.292C256.458 588.816 260.143 590.467 261.947 593.449C263.264 595.633 263.541 598.293 263.563 600.842C263.585 603.525 263.319 606.296 262.091 608.679C261.349 610.097 260.298 611.339 259.103 612.403C255.24 615.894 249.928 617.712 244.748 617.313C239.568 616.914 234.588 614.321 231.29 610.297C234.466 609.255 237.1 608.446 239.425 607.714L239.436 607.725Z" fill="#00505F"/>
<path d="M201.242 614.52C201.839 618.233 203.776 621.503 206.454 623.775C209.133 626.103 212.586 626.979 216.216 627.311C219.846 627.71 223.521 627.777 227.195 627.599C230.869 627.4 234.533 626.923 238.24 626.258C234.809 627.799 231.124 628.797 227.372 629.318C220.112 630.071 210.903 630.581 205.303 625.039C202.514 622.246 200.921 618.289 201.253 614.509L201.242 614.52Z" fill="black"/>
<path d="M205.27 611.417C202.702 611.749 199.825 612.259 198.386 614.409C197.921 615.108 197.656 615.928 197.456 616.748C196.826 619.386 196.859 622.179 197.545 624.806" stroke="#1A1A1A" stroke-miterlimit="10" stroke-linecap="round"/>
<path d="M240.542 607.193C240 607.637 239.402 608.18 238.794 608.845C238.274 609.421 237.842 609.975 237.477 610.485C237.477 610.053 237.554 609.41 237.809 608.679C238.008 608.08 238.196 608.124 239.17 607.803C239.735 607.615 240.221 607.393 240.531 607.193H240.542Z" fill="#002B3F"/>
<path d="M52.5599 642.219C58.8462 656.828 68.3422 670.041 80.1845 680.648" stroke="#740600" stroke-width="0.5" stroke-miterlimit="10" stroke-linecap="round"/>
<path d="M67.8995 631.823L95.4356 669.93" stroke="#740600" stroke-width="0.5" stroke-miterlimit="10" stroke-linecap="round"/>
<path d="M85.0432 621.791C92.1707 635.846 100.416 649.335 109.657 662.104" stroke="#740600" stroke-width="0.5" stroke-miterlimit="10" stroke-linecap="round"/>
<path d="M103.426 610.818L126.215 649.613" stroke="#740600" stroke-width="0.5" stroke-miterlimit="10" stroke-linecap="round"/>
<path d="M123.824 600.221C130.819 612.547 137.802 624.873 144.797 637.198" stroke="#740600" stroke-width="0.5" stroke-miterlimit="10" stroke-linecap="round"/>
<path d="M144.863 587.896C151.758 600.975 158.665 614.055 165.56 627.134" stroke="#740600" stroke-width="0.5" stroke-miterlimit="10" stroke-linecap="round"/>
<path d="M164.674 577.931C171.348 582.254 175.985 589.104 179.693 596.142C183.401 603.181 186.356 610.641 190.661 617.335" stroke="#740600" stroke-width="0.5" stroke-miterlimit="10" stroke-linecap="round"/>
<path d="M188.193 566.825C198.63 579.45 207.948 593.006 216.017 607.282" stroke="#740600" stroke-width="0.5" stroke-miterlimit="10" stroke-linecap="round"/>
<path d="M208.823 558.268C221.019 569.939 229.84 585.103 233.946 601.496" stroke="#740600" stroke-width="0.5" stroke-miterlimit="10" stroke-linecap="round"/>
</g>
<path d="M1.20133 121.944C1.20132 167.423 -7.30465 265.878 86.2609 265.878C179.826 265.878 580.107 265.544 757.731 265.878C789.587 267.044 853.498 243.788 854.299 141.435C855.3 13.4942 904.834 1 1002.4 1C1099.97 1 1141 39.4822 1141 141.435C1141 222.997 1141 342.009 1141 391.32C1141 475 1094.67 547.248 961.374 547.248C828.081 547.248 588.319 547.248 588.319 547.248C588.319 547.248 444.011 543.849 444.011 692.181C444.011 849.5 304.414 847.109 276.394 847.109C267 847.109 196.004 847.109 141.8 847.109C91.5 847.109 1.20133 857.504 1.20133 955.059C1.20133 1077 58.7416 1083 141.8 1083C208.246 1083 615.92 1083 729.5 1083" stroke="#1D5B79" stroke-width="2"/>
<g clip-path="url(#clip1_537_859)">
<path d="M875.64 989.92C846.98 1014.54 817.33 1038 786.8 1060.25C785.37 1061.29 783.93 1062.33 782.32 1063.05C780.44 1063.89 778.39 1064.25 776.38 1064.67C759.08 1068.2 742.55 1075.47 728.26 1085.85C726.77 1083.58 725.29 1081.3 724 1079.27C737.69 1069.42 747.04 1053.74 749.87 1037.62C795.78 996.2 843.92 957.25 894.02 921.01C892.45 945.47 881.25 968.08 875.64 989.93V989.92Z" fill="#F8CB2E"/>
<path d="M740.75 1078.41C739.13 1075.76 736.6 1071.98 734.21 1070C730.5 1072.86 727.53 1076.18 724 1079.26C725.44 1081.27 726.82 1083.83 728.26 1085.84C732.78 1083.45 736.85 1080.93 740.76 1078.41H740.75Z" fill="#262626"/>
<path d="M781.67 1063.5C785.17 1061.01 784.7 1054.87 781.17 1052.43C778.5 1050.59 774.93 1050.9 771.75 1051.53C774.47 1049.39 774.69 1044.77 772.2 1042.38C769.71 1039.99 765.1 1040.4 763.07 1043.2C765.53 1040.61 763.42 1035.83 760.01 1034.77C756.6 1033.71 752.45 1035.49 749.7 1037.78C748.15 1044.44 744.9 1052.28 743.65 1054.55C740.8 1059.75 737.79 1063.82 734.64 1068.85C734.42 1069.2 734.2 1069.58 734.21 1069.99C734.22 1070.46 734.54 1070.86 734.84 1071.23C736.81 1073.62 738.78 1076.01 740.76 1078.4" fill="#C7A269"/>
<path d="M1038.48 1019.81C1028.54 1019.78 1020.72 1011.79 1013.65 1004.8C976.03 967.65 927.02 944.82 882.26 916.68C879.96 915.23 877.46 913.49 876.9 910.83C878.15 908.66 881.2 908.57 883.7 908.81C933.32 913.47 980.43 936.44 1017.34 969.93C1024.15 976.1 1030.72 982.75 1035.14 990.81C1039.56 998.87 1041.63 1008.58 1039 1017.38C1038.7 1018.38 1038.34 1019.36 1038.49 1019.8L1038.48 1019.81Z" fill="#4A2121"/>
<path d="M876.63 976.83C863.39 987.77 849.96 998.73 836.33 1009.72C819.84 1023.02 803.44 1036.06 787.14 1048.83" stroke="#D47100" stroke-width="0.25" stroke-miterlimit="10"/>
<path d="M876.93 959.64C859.63 973.64 842.35 987.67 825.08 1001.71C810.65 1013.45 796.23 1025.2 781.82 1036.97" stroke="#D47100" stroke-width="0.25" stroke-miterlimit="10"/>
<path d="M881.37 940.68C863.65 956.73 844.21 973.25 823 989.87C804.33 1004.5 786.08 1017.8 768.48 1029.87" stroke="#D47100" stroke-width="0.25" stroke-miterlimit="10"/>
<path d="M889.22 1034.83C878.83 1047.93 864.79 1057.55 850.98 1066.98C850.27 1067.46 849.39 1067.96 848.62 1067.61C848.09 1067.37 847.81 1066.81 847.55 1066.29C846.06 1063.28 844.29 1060.41 842.27 1057.73C840.67 1055.61 838.48 1053.43 835.84 1053.68C835.15 1057 836.81 1060.31 838.51 1063.23C841.27 1067.97 844.32 1072.54 847.61 1076.92C847.94 1077.36 848.3 1077.81 848.82 1077.98C849.38 1078.16 849.98 1077.96 850.53 1077.75C864.61 1072.35 875.2 1060.01 889.33 1054.73C895.25 1052.52 901.73 1051.58 907.11 1048.25C899.91 1045.3 893.19 1041.16 889.22 1034.83Z" fill="#006E7F"/>
<path d="M937.99 1053.1L923.2 1069.65C922.95 1069.93 922.68 1070.25 922.66 1070.63C922.64 1070.95 922.81 1071.26 922.98 1071.54C927.78 1079.78 932.58 1088.01 937.38 1096.25C931.57 1094.75 925.4 1094.7 919.57 1096.1C918.71 1097.79 921.14 1099.2 923 1099.52C932.51 1101.16 942.24 1101.54 951.85 1100.63C946.1 1093 940.94 1084.94 936.41 1076.53C941.65 1068.87 947.96 1061.95 955.11 1056.02C948.58 1055.65 942.05 1055.28 938 1053.1H937.99Z" fill="#006E7F"/>
<path d="M1035.28 1002.22C1024.72 1028.97 1001.16 1050.24 973.48 1058.03C945.8 1065.82 914.6 1059.95 891.64 1042.63C884.04 1036.9 877.27 1029.93 872.6 1021.64C864.01 1006.4 863.17 987.72 866.99 970.65C870.81 953.58 878.93 937.81 887.54 922.58C891.4 915.76 895.98 908.48 903.42 906C906.81 904.87 910.47 904.87 914.04 905.05C950.7 906.9 985.11 926.02 1010.48 952.55C1024.18 966.88 1041.67 986.06 1035.29 1002.2L1035.28 1002.22Z" fill="#468B97"/>
<path d="M923.37 872.57C929.46 860.27 936.27 855.68 950.73 846.75C960.43 840.76 971.85 833.7 983.24 833.05C1000.01 832.09 1020.71 845.15 1034.91 854.14C1062.48 871.59 1077.46 887.55 1097.67 913.17C1099.16 915.05 1100.68 917.09 1100.64 919.57C1100.62 920.95 1100 922.3 1098.83 923.03C1097.17 924.06 1095.49 923.28 1093.99 922.53C1090.38 920.73 1086.77 918.93 1083.16 917.13C1083.12 934.57 1075.78 951.88 1061.95 965.67C1037.46 954.1 1024.73 944.72 1002.52 929.21C976.43 910.99 950.34 892.77 923.38 872.56L923.37 872.57Z" fill="#B22727"/>
<path d="M1083.15 917.14C1081.54 916.31 1079.29 914.92 1077.08 912.68C1075.05 910.63 1073.75 908.58 1072.93 907.05C1074.44 911.45 1076.82 920.27 1075.3 931.35C1073.77 942.47 1069.06 950.34 1066.41 954.16C1067.78 954.62 1069.14 955.08 1070.51 955.54C1073.36 951.59 1076.96 945.69 1079.6 937.92C1082.44 929.56 1083.09 922.2 1083.15 917.14Z" fill="#740600"/>
<path d="M1032.81 1008.01C1031.89 1009.76 1030.97 1011.51 1030.05 1013.25C1020.48 998.96 1005.73 980.49 984 963.24C948.51 935.06 912.37 924.39 891.56 919.98C891.77 912.5 894.21 909.03 896.3 907.24C912.01 893.78 966.42 925.51 1000.6 962.35C1016.99 980.02 1027.11 997.12 1032.81 1008.01Z" fill="#006E7F"/>
<path d="M1039.87 1019.66C1039.38 1020.04 1037.74 1019.7 1037.47 1019.14C1022.82 988.8 998.38 964.61 969.52 947.18C941.52 930.28 910.26 919.49 878.58 911.26C876.67 910.76 875.87 908.5 877.06 906.93C884.48 897.09 890.93 886.33 900.15 878.2C904.38 874.47 915.16 866.47 918.73 865.56C921.92 864.74 925.26 865.82 928.38 866.88C941.04 871.18 953.72 875.49 966.07 880.61C1007.07 897.6 1041.39 923.89 1071.45 956.54C1075.63 961.08 1079.8 965.99 1081.29 971.98C1073.6 977.71 1061.88 992.18 1056.71 1000.26C1051.82 1007.89 1045.34 1015.44 1039.88 1019.66H1039.87Z" fill="#9F2727"/>
<path d="M1068.19 960.98C1062.88 966.79 1057.55 972.72 1052.19 978.76C1046.64 985.02 1041.21 991.25 1035.89 997.43" stroke="#740600" stroke-width="0.5" stroke-miterlimit="10" stroke-linecap="round"/>
<path d="M1053.37 947.64C1048.78 952.28 1044.13 957.12 1039.44 962.16C1034.05 967.96 1028.91 973.7 1024.03 979.35" stroke="#740600" stroke-width="0.5" stroke-miterlimit="10" stroke-linecap="round"/>
<path d="M1037.67 934.6C1031.75 940.19 1025.83 945.82 1019.89 951.49C1015.13 956.04 1010.38 960.58 1005.67 965.12" stroke="#740600" stroke-width="0.5" stroke-miterlimit="10" stroke-linecap="round"/>
<path d="M1019.6 918.9C1014.04 924.46 1008.4 930.29 1002.71 936.38C997.77 941.67 993.03 946.91 988.49 952.08" stroke="#740600" stroke-width="0.5" stroke-miterlimit="10" stroke-linecap="round"/>
<path d="M998.86 904.98C993.48 909.23 987.46 914.6 981.38 921.28C976.08 927.1 971.79 932.76 968.34 937.87" stroke="#740600" stroke-width="0.5" stroke-miterlimit="10" stroke-linecap="round"/>
<path d="M976.34 892.23C970.35 896.8 962.9 903.61 956.19 913.27C952.93 917.97 950.42 922.5 948.49 926.6" stroke="#740600" stroke-width="0.5" stroke-miterlimit="10" stroke-linecap="round"/>
<path d="M950.56 880.98C944.93 885.67 938.74 891.44 932.49 898.46C927.05 904.57 922.55 910.51 918.86 915.94" stroke="#740600" stroke-width="0.5" stroke-miterlimit="10" stroke-linecap="round"/>
<path d="M928.34 873.27C923.7 875.35 916.38 879.33 909.38 886.6C901.91 894.35 898.15 902.37 896.3 907.23" stroke="#740600" stroke-width="0.5" stroke-miterlimit="10" stroke-linecap="round"/>
<path d="M973.77 991.77C977.95 989.77 983.63 993.39 983.58 998.02C983.55 1001.09 981.43 1003.82 978.86 1005.51C976.29 1007.2 973.3 1008.08 970.41 1009.12C957.29 1013.88 939.63 1026.03 927.26 1032.5C925.9 1033.21 924.43 1033.92 922.9 1033.8C921.99 1033.73 921.13 1033.38 920.28 1033.03C911.91 1029.55 903.54 1026.08 895.17 1022.6C887.27 1019.32 879.36 1016.04 871.83 1011.99C866.8 1009.29 861.79 1006.19 856.14 1005.35C853.62 1004.97 851.05 1005.06 848.54 1004.64C838.84 1003.03 831.86 994.33 827.83 985.36C826.43 982.25 825.25 978.77 826.19 975.49C827.13 972.21 831.06 969.66 834.04 971.32C837.19 979.27 842.31 986.43 848.8 991.98C853.52 996.01 860.69 999.17 865.63 995.41C865.72 996.67 865.8 997.93 865.77 999.03C881.86 1006.71 898.09 1014.1 914.44 1021.21C928.33 1018.3 943.58 1006.45 948.31 1003.82C959.14 997.81 965.03 995.95 973.76 991.76L973.77 991.77Z" fill="#006E7F"/>
<path d="M860.56 946.36C856.44 946.14 852.28 946.81 848.44 948.29C846.25 949.14 844.03 950.37 842.95 952.46C841.6 955.08 842.4 958.27 843.54 960.98C846.36 967.7 851.13 973.59 857.11 977.76C859.27 979.26 862.17 980.56 864.42 979.19C866.84 977.73 866.82 974.04 865.33 971.64C863.84 969.24 861.37 967.66 859.34 965.7C856.25 962.71 854.16 958.71 853.47 954.47C853.36 953.8 853.29 953.09 853.57 952.47C853.84 951.86 854.41 951.43 854.96 951.04C856.99 949.57 859.03 948.11 860.56 946.36Z" fill="#006E7F"/>
<path d="M902.23 917.87C899.82 917.36 899.3 917.43 899.3 917.43C898.2 916.47 897.5 915.14 896.62 913.98C895.15 912.05 893 910.52 890.58 910.27C888.16 910.03 885.53 911.31 884.66 913.58C883.77 915.89 884.8 918.5 886.2 920.54C887.06 921.81 888.09 923 889.43 923.75C891.06 924.67 893 924.87 894.87 924.91C900.77 925.03 906.54 923.62 911.88 921.11C907.15 919.63 904.13 918.47 902.24 917.88L902.23 917.87Z" fill="#00505F"/>
<path d="M938.49 925.93C927.46 940.01 922.45 943.28 904.36 941.18C899.88 940.66 895.45 939.74 891.16 938.14C895.1 940.5 899.59 941.91 904.13 942.73C921.77 945.92 929.98 941.57 938.48 925.94L938.49 925.93Z" fill="black"/>
<path d="M898.84 916.94C899.11 917.19 899.47 917.59 899.78 918.14C900.11 918.72 900.26 919.26 900.34 919.64C900.28 919.21 900.26 918.63 900.41 917.97C900.46 917.77 900.51 917.59 900.58 917.43C900 917.26 899.42 917.1 898.84 916.93V916.94Z" fill="#002B3F"/>
<path d="M935.99 921.34C940.66 919.92 944.71 923.43 943.12 928.26C943.82 927.36 944.2 926.17 944.13 924.97C944.07 921.05 938.93 919.02 935.99 921.35V921.34Z" fill="black"/>
</g>
<defs>
<clipPath id="clip0_537_859">
<rect width="401" height="421" fill="white" transform="translate(0 426)"/>
</clipPath>
<clipPath id="clip1_537_859">
<rect width="376.64" height="268.12" fill="white" transform="matrix(-1 0 0 1 1100.64 833)"/>
</clipPath>
</defs>
</svg>
