<svg width="1142" height="630" viewBox="0 0 1142 630" fill="none" xmlns="http://www.w3.org/2000/svg">
<path d="M978 11H1141" stroke="#1D5B79" stroke-width="2"/>
<path d="M653.588 221H555.306C492.405 215.302 468 157.491 468 113.034C468 68.578 485.209 10.1126 555.306 8H693" stroke="#1D5B79" stroke-width="2"/>
<path d="M916 396.883H1063.62C1113.83 399.6 1141 354.411 1141 313.938C1141 273.465 1124.71 224.248 1063.62 221H970.365" stroke="#1D5B79" stroke-width="2"/>
<path d="M628 397H242.585C154.399 397 60.5 397 22.0593 476.166C5.2267 503.36 0.999999 546.5 1 630" stroke="#1D5B79" stroke-width="2"/>
<circle cx="1033" cy="222" r="8" fill="#EE5007"/>
<circle cx="271" cy="397" r="8" fill="#EE5007"/>
<circle cx="596" cy="8" r="8" fill="#EE5007"/>
<circle cx="478" cy="162" r="8" fill="#EE5007"/>
<circle cx="1128" cy="361" r="8" fill="#EE5007"/>
<circle cx="586" cy="397" r="8" fill="#EE5007"/>
</svg>
