<svg width="336" height="253" viewBox="0 0 336 253" fill="none" xmlns="http://www.w3.org/2000/svg">
<g clip-path="url(#clip0_269_2983)">
<path d="M101.169 209.661L92.5731 249.05C95.2502 248.983 97.9274 248.915 100.597 248.847C101.966 248.809 103.492 248.832 104.493 249.766C104.869 250.113 105.139 250.603 105.117 251.108C105.057 252.389 103.387 252.819 102.109 252.872C96.6039 253.09 91.0841 253.038 85.5793 252.698C87.6399 238.732 88.9258 224.653 89.4372 210.543C93.5657 210.46 97.6943 210.377 101.161 209.661H101.169Z" fill="#006E7F"/>
<path d="M124.865 203.948C125.805 217.93 127.429 231.873 129.738 245.696C131.633 244.852 133.565 244.008 135.626 243.79C137.686 243.571 139.935 244.099 141.326 245.636C136.145 248.628 130.249 250.377 124.278 250.701C124.489 247.505 123.511 244.37 122.526 241.325C118.909 230.147 115.096 219.038 111.088 207.988C116.149 206.699 121.202 205.403 124.872 203.941L124.865 203.948Z" fill="#006E7F"/>
<path d="M157.698 163.391C159.179 170.747 161.51 177.757 164.571 184.073C165.511 186.002 167.398 188.595 168.955 187.781C169.474 179.505 168.015 170.551 165.488 163.044C164.842 161.122 163.917 159.064 162.428 158.672C161.292 158.371 160.119 159.192 159.329 160.383C158.54 161.574 158.058 163.089 157.698 163.398V163.391Z" fill="#00505F"/>
<path d="M242.976 151.414C227.973 185.444 212.053 219.068 195.238 252.239C198.991 251.643 202.751 251.055 206.451 249.925C211.015 236.674 218.265 224.555 224.657 212.088C234.222 193.419 241.908 173.845 249.579 154.308C246.413 154.459 243.224 154.12 242.976 151.414Z" fill="#004A47"/>
<path d="M259.768 155.974C270.033 187.464 278.997 219.384 286.63 251.621C291.669 250.528 296.978 250.663 301.595 251.583C296.955 244.694 294.12 236.765 291.398 228.911C283.036 204.837 275.215 180.568 267.965 156.14C264.717 156.313 261.43 155.816 259.768 155.974Z" fill="#004A47"/>
<path d="M206.466 4.40924C210.572 3.67814 214.632 2.22346 217.798 0C226.635 2.97718 232.102 4.462 235.245 5.35892C254.264 10.8008 302.761 8.30595 336 4.40924C334.812 11.5017 334.488 14.6221 334.143 18.8655C333.203 30.4577 333.458 41.2735 332.518 52.8657C329.57 89.3229 326.314 127.092 324.058 163.579C321.479 165.735 319.027 168.757 316.711 170.845C310.544 145.445 306.717 117.376 310.379 91.4861C311.108 86.3231 312.018 80.9642 310.484 75.9821C308.807 70.5328 304.461 66.3798 300.159 62.6338C277.486 42.9166 251.293 27.277 223.198 16.6873C216.4 14.1246 208.519 10.8158 206.466 4.4017V4.40924Z" fill="#006E7F"/>
<path d="M206.466 4.4093C245.796 16.7552 288.383 18.5113 328.593 9.43659C325.322 25.5435 325.509 42.1253 325.261 58.5638C324.705 96.1215 321.847 133.642 316.711 170.845C280.524 163.119 244.337 155.394 208.158 147.676C205.909 113.698 203.653 79.5699 206.586 45.6451C207.767 31.9953 209.774 18.1646 206.466 4.4093Z" fill="#C2C2C2"/>
<path d="M151.328 110.224C155.795 114.972 158.246 121.243 160.307 127.438C163.638 137.47 166.21 147.872 166.27 158.446C166.331 169.013 163.721 179.829 157.479 188.346C147.989 201.303 131.745 207.212 116.156 211.01C103.906 213.995 90.4373 215.993 79.1195 210.408C73.7501 207.754 69.2982 203.586 64.9365 199.471C60.1086 194.926 55.2356 190.306 51.7086 184.683C50.6332 182.965 49.6631 181.058 49.6857 179.023C49.7158 175.895 52.0245 173.325 54.2354 171.116C79.8941 145.422 110.824 125.057 144.537 111.648C146.944 110.691 149.463 109.756 151.32 110.224H151.328Z" fill="#468B97"/>
<path d="M52.2576 185.52C51.8967 185.015 51.5282 184.442 51.1822 183.786C50.4753 182.46 50.0542 181.216 49.791 180.183C69.6066 157.851 88.3543 143.266 101.552 134.214C109.93 128.471 145.65 103.975 153.689 111.882C155.186 113.359 155.381 115.62 155.321 117.241C139.401 123.971 120.578 133.378 100.657 146.568C80.7063 159.78 64.6809 173.46 52.2501 185.512L52.2576 185.52Z" fill="#006E7F"/>
<path d="M277.463 46.5269C277.155 49.1799 276.847 51.833 276.538 54.4861C274.455 54.5615 272.38 54.6368 270.297 54.7122C272.681 51.9838 275.072 49.2553 277.456 46.5269H277.463Z" fill="#A1A1A1"/>
<path d="M313.432 44.9441C313.019 47.6047 312.605 50.2653 312.191 52.9259C310.259 53.0013 308.326 53.0767 306.401 53.1521C308.747 50.4161 311.093 47.6801 313.432 44.9441Z" fill="#A1A1A1"/>
<path d="M267.92 85.8483C267.747 88.1999 267.574 90.5515 267.401 92.9031C264.875 92.9784 262.348 93.0538 259.829 93.1292C262.528 90.7022 265.221 88.2752 267.92 85.8483Z" fill="#A1A1A1"/>
<path d="M309.424 86.0367L309.296 92.677C305.085 93.7699 302.784 93.9206 302.385 93.1217C301.911 92.1569 304.25 89.7903 309.416 86.0367H309.424Z" fill="#A1A1A1"/>
<path d="M238.915 44.5673L236.885 53.1521H229.312C232.515 50.288 235.719 47.4314 238.923 44.5673H238.915Z" fill="#A1A1A1"/>
<path d="M87.888 158.597C84.3836 163.963 80.3303 168.961 75.8107 173.498C74.9684 174.342 75.2918 175.774 76.4047 176.211C86.3689 180.123 97.965 180.176 106.688 186.394C99.5518 187.758 93.2348 192.748 90.0914 199.29C89.3996 200.722 91.0089 202.162 92.3324 201.28L99.2509 196.667C101.672 195.054 105.29 191.987 107.974 190.864C111.87 189.235 115.133 188.693 119.082 188.354C120.383 188.241 120.864 186.5 119.743 185.821C119.3 185.55 118.796 185.361 118.292 185.286C116.81 185.06 115.299 185.444 113.81 185.316C111.095 185.075 108.862 183.206 106.628 181.638C101.296 177.892 95.1449 175.548 89.0085 173.325C88.5122 173.144 88.4445 172.465 88.8957 172.194L104.402 162.773" fill="#006E7F"/>
<path d="M158.472 130.122C160.435 128.614 162.443 127.061 163.766 124.974C164.435 123.918 164.924 122.652 164.631 121.439C164.338 120.225 162.984 119.238 161.833 119.698C161.209 119.946 160.788 120.534 160.405 121.092C159.111 122.976 157.818 124.868 156.524 126.752C150.892 124.868 144.808 124.371 138.942 125.313C136.453 125.712 133.723 126.579 132.55 128.818C133.926 129.956 135.806 130.212 137.574 130.423C143.244 131.086 148.906 131.757 154.577 132.42C155.381 132.518 156.201 132.609 156.983 132.42C158.615 132.021 159.69 130.506 158.472 130.137V130.122Z" fill="#006E7F"/>
<path d="M159.126 127.22C171.7 143.417 176.092 165.674 170.617 185.452C170.226 186.854 168.842 188.587 167.722 187.66C167.428 187.419 167.278 187.057 167.15 186.703C163.503 176.814 166.985 165.78 165.962 155.288C165.082 146.259 160.878 137.9 156.156 130.212C156.96 129.081 158.329 128.373 159.72 128.373C159.78 128.689 159.841 129.006 159.126 127.22Z" fill="#006E7F"/>
<path d="M219.197 30.7817C219.318 34.9724 221.145 39.3816 219.378 43.1879C218.558 44.9591 217.054 46.3083 215.572 47.567C213.362 49.4362 211.09 51.2301 208.752 52.9485C215.001 53.3706 221.258 53.7927 227.507 54.2072C228.673 54.2826 229.898 54.358 230.966 53.8756C231.696 53.544 232.29 52.9787 232.861 52.4134C235.478 49.8206 237.87 46.9414 239.396 43.5874C240.923 40.2333 241.502 36.3517 240.457 32.8243C233.328 33.676 226.048 33.2389 219.197 30.7893V30.7817Z" fill="#E3CA27"/>
<path d="M257.257 33.2389C259.58 40.1957 257.783 48.366 252.76 53.6948C251.744 54.765 250.458 55.7901 248.992 55.7373C256.016 56.0388 263.032 56.3403 270.056 56.6418C270.5 56.6644 270.951 56.6795 271.357 56.5061C271.74 56.3403 272.034 56.0237 272.312 55.7147C277.561 49.7302 279.84 41.2509 278.29 33.4349C271.387 34.6182 264.205 34.1207 257.257 33.2464V33.2389Z" fill="#E3CA27"/>
<path d="M291.496 34.0981C294.692 41.9744 291.594 51.9084 284.487 56.5513C286.781 57.1844 289.21 56.6945 291.556 56.3252C296.73 55.5187 301.994 55.3077 307.213 55.6921C309.161 52.0365 311.702 48.7051 313.432 44.9365C315.162 41.168 315.996 36.706 313.545 32.8771C306.265 34.083 298.866 34.4976 291.488 34.0906L291.496 34.0981Z" fill="#E3CA27"/>
<path d="M213.677 71.49C214.031 78.6352 213.835 85.8106 213.106 92.9332C219.16 92.9634 225.213 93.3553 231.222 94.1015C231.666 86.8733 232.102 79.6452 232.147 72.5753C225.785 72.1608 219.423 71.7538 213.677 71.49Z" fill="#E3CA27"/>
<path d="M251.985 73.9546C252.662 79.2307 253.173 85.1398 249.917 89.3305C248.089 91.6745 245.352 93.084 242.705 94.4256C248.293 93.9583 253.925 94.0713 259.49 94.7648C260.189 94.8552 260.919 94.9456 261.573 94.6894C262.062 94.501 262.453 94.1392 262.829 93.7774C267.98 88.7049 270.372 80.9793 268.988 73.8793C263.265 73.9697 257.542 74.0602 251.992 73.9622L251.985 73.9546Z" fill="#E3CA27"/>
<path d="M289.909 74.4897C290.999 78.6276 291.36 83.1047 289.977 87.1522C288.593 91.1996 285.224 94.7496 281.013 95.4657C288.713 95.2923 296.406 95.119 303.881 95.0285C308.845 90.363 311.251 83.1273 310.093 76.4117C310.04 76.0876 309.95 75.7334 309.687 75.5525C309.446 75.3867 309.131 75.4017 308.845 75.4244C302.58 75.854 296.264 75.5902 289.909 74.4897Z" fill="#E3CA27"/>
<path d="M222.341 40.158C223.657 38.8164 225.95 38.5828 227.514 39.6304C227.898 39.8867 228.244 40.2108 228.673 40.3766C229.763 40.7911 230.929 40.06 231.869 39.3591C231.981 40.3766 233.23 40.8665 234.245 40.7459C235.26 40.6253 236.208 40.1203 237.223 40.06" stroke="#6B6B6B" stroke-miterlimit="10" stroke-linecap="round"/>
<path d="M259.392 43.3838C260.626 42.3965 262.25 41.9216 263.822 42.1025C264.89 42.2231 265.912 42.6377 266.98 42.7809C268.048 42.9241 269.266 42.7356 269.943 41.8915C270.635 42.8412 271.951 43.2934 273.079 42.9693" stroke="#6B6B6B" stroke-miterlimit="10" stroke-linecap="round"/>
<path d="M257.633 49.8809L260.513 47.3334C261.686 47.6273 262.814 48.0871 263.852 48.6976C264.348 48.3132 264.747 47.7931 264.995 47.2128C264.995 48.283 265.98 49.2478 267.04 49.2252C267.725 49.2101 268.349 48.8483 269.018 48.7428C269.687 48.6373 270.545 48.9312 270.627 49.6096" stroke="#6B6B6B" stroke-miterlimit="10" stroke-linecap="round"/>
<path d="M293.978 41.5373C295.94 40.9645 298.023 40.3916 299.994 40.9343C300.58 41.0926 301.167 41.3564 301.776 41.3187C302.22 41.2886 302.633 41.1077 303.054 40.9645C305.16 40.2334 307.469 40.4369 309.687 40.6404" stroke="#6B6B6B" stroke-miterlimit="10" stroke-linecap="round"/>
<path d="M215.918 78.6126H221.814C222.739 78.6202 223.845 78.5071 224.281 77.5424C225.695 78.6352 227.642 78.6805 229.094 77.663" stroke="#6B6B6B" stroke-width="0.92" stroke-miterlimit="10" stroke-linecap="round"/>
<path d="M215.678 86.9939L219.348 85.2905C220.385 86.1196 221.574 86.7527 222.844 87.1522C223.22 86.0216 224.401 85.3207 225.582 85.1624C226.762 85.0041 227.943 85.283 229.094 85.5694" stroke="#6B6B6B" stroke-miterlimit="10" stroke-linecap="round"/>
<path d="M255.723 80.1049C257.031 79.6603 258.513 79.7281 259.776 80.2858C260.551 80.625 261.333 81.1526 262.16 80.9868C262.814 80.8587 263.295 80.3235 263.837 79.9316C264.378 79.5397 265.183 79.306 255.723 80.1049Z" stroke="#6B6B6B" stroke-miterlimit="10" stroke-linecap="round"/>
<path d="M293.233 82.5546C295.098 82.042 297.076 81.9742 298.971 82.3661C300.212 82.6224 301.558 83.0596 302.693 82.4943C303.19 82.2455 303.588 81.831 304.1 81.62C305.137 81.1979 306.416 81.7255 307.408 81.1979" stroke="#6B6B6B" stroke-miterlimit="10" stroke-linecap="round"/>
<path d="M301.64 87.3556C299.994 86.6471 298.046 85.9537 296.489 86.8431C296.091 87.0692 295.752 87.3858 295.346 87.5893C294.188 88.1697 292.797 87.6948 301.64 87.3481V87.3556Z" stroke="#6B6B6B" stroke-miterlimit="10" stroke-linecap="round"/>
<path d="M211.963 102.415C212.557 102.031 213.271 101.925 213.971 101.82C214.625 101.722 215.272 101.631 215.926 101.533C216.264 101.48 216.603 101.435 216.941 101.495C217.28 101.556 217.588 101.722 217.934 101.759C218.43 101.82 218.949 101.571 219.22 101.149C220.243 101.887 221.777 101.82 222.732 100.99C222.89 101.405 223.348 101.895 223.664 101.593" stroke="#6E6E6E" stroke-width="0.5" stroke-miterlimit="10" stroke-linecap="round"/>
<path d="M298.068 106.417L300.114 104.533C299.948 105.211 300.731 105.814 301.422 105.746C302.114 105.678 302.678 105.181 303.182 104.699C303.25 105.294 304.024 105.528 304.618 105.422C305.213 105.317 305.799 105.03 306.386 105.151C306.671 105.211 306.927 105.362 307.19 105.483C308.363 106.003 309.83 105.807 310.83 104.993" stroke="#6E6E6E" stroke-width="0.5" stroke-miterlimit="10" stroke-linecap="round"/>
<path d="M299.016 108.965C300.738 108.784 302.475 108.693 304.213 108.701C306.032 108.708 307.89 108.821 309.65 108.369" stroke="#6E6E6E" stroke-width="0.5" stroke-miterlimit="10" stroke-linecap="round"/>
<path d="M218.739 104.344C222.514 110.186 229.342 113.366 236.14 114.791" stroke="#6E6E6E" stroke-width="0.5" stroke-miterlimit="10" stroke-linecap="round"/>
<path d="M275.207 131.908C284.901 129.466 293.173 121.959 296.557 112.53" stroke="#6E6E6E" stroke-width="0.5" stroke-miterlimit="10" stroke-linecap="round"/>
<path d="M274.628 144.683C275.448 147.156 276.41 149.816 278.614 151.195C279.501 151.746 280.524 152.04 281.532 152.311C285.299 153.313 289.127 154.082 292.985 154.617" stroke="#6E6E6E" stroke-width="0.5" stroke-miterlimit="10" stroke-linecap="round"/>
<path d="M296.85 155.944C298.369 155.71 299.873 155.341 301.325 154.844C301.46 155.379 301.693 155.884 302.009 156.336C302.663 155.688 303.52 154.979 304.4 155.266C304.949 155.446 305.31 155.982 305.822 156.26C306.333 156.539 307.205 156.313 307.123 155.733C307.544 156.509 308.048 157.346 308.882 157.625C309.89 157.956 310.95 157.346 311.83 156.758C311.815 156.984 311.8 157.203 311.793 157.429" stroke="#6E6E6E" stroke-width="0.5" stroke-miterlimit="10" stroke-linecap="round"/>
<path d="M286.465 107.917C267.95 106.432 249.443 104.955 230.5 103.87C231.169 115.379 230.086 126.979 227.312 138.164C245.382 138.819 263.401 140.779 281.186 144.02C285.465 132.488 287.33 120.067 286.465 107.917Z" stroke="#6E6E6E" stroke-width="0.5" stroke-miterlimit="10" stroke-linecap="round"/>
<path d="M230.726 105.822L286.555 110.435" stroke="#6E6E6E" stroke-width="0.5" stroke-miterlimit="10" stroke-linecap="round"/>
<path d="M232.523 104.533C232.29 104.736 232.102 105 231.989 105.287C232.169 105.377 232.373 105.445 232.568 105.407C232.764 105.369 232.944 105.189 232.937 104.985C232.929 104.782 232.658 104.631 232.523 104.533Z" stroke="#6E6E6E" stroke-width="0.5" stroke-miterlimit="10" stroke-linecap="round"/>
<path d="M234.501 104.676C234.29 104.947 234.192 105.294 234.222 105.633C234.471 105.671 234.734 105.52 234.816 105.287C234.899 105.053 234.801 104.767 234.493 104.676H234.501Z" stroke="#6E6E6E" stroke-width="0.5" stroke-miterlimit="10" stroke-linecap="round"/>
<path d="M236.652 104.812C236.426 105.015 236.261 105.287 236.193 105.588C236.396 105.784 236.772 105.731 236.915 105.49C237.058 105.249 236.915 104.887 236.652 104.819V104.812Z" stroke="#6E6E6E" stroke-width="0.5" stroke-miterlimit="10" stroke-linecap="round"/>
<path d="M238.343 109.719C251.045 111.211 263.807 112.168 276.583 112.59C275.937 118.04 275.29 123.489 274.643 128.938C262.288 127.649 249.924 126.361 237.569 125.079C238.313 120.09 238.637 115.04 238.343 109.719Z" fill="#A1A1A1" stroke="#6E6E6E" stroke-width="0.5" stroke-miterlimit="10" stroke-linecap="round"/>
<path d="M238.832 110.148C248.879 117.904 261.438 121.605 272.207 128.32" stroke="#6E6E6E" stroke-width="0.5" stroke-miterlimit="10" stroke-linecap="round"/>
<path d="M275.764 113.178C263.235 117.248 250.609 121.017 237.9 124.476" stroke="#6E6E6E" stroke-width="0.5" stroke-miterlimit="10" stroke-linecap="round"/>
<path d="M236.712 129.813L238.035 128.162C238.592 128.222 239.103 128.569 239.366 129.066L240.735 128.531C241.419 129.353 242.615 129.473 243.683 129.534C244.691 129.586 245.698 129.639 246.706 129.699C246.977 129.715 247.247 129.73 247.496 129.835C247.706 129.926 247.887 130.076 248.082 130.197C248.827 130.642 249.752 130.581 250.616 130.506C251.759 130.408 252.91 130.31 254.053 130.212" stroke="#6E6E6E" stroke-width="0.5" stroke-miterlimit="10" stroke-linecap="round"/>
<path d="M257.437 130.461C259.107 130.318 260.746 131.094 262.416 131.034C262.874 131.019 263.333 130.936 263.784 131.003C264.228 131.064 264.649 131.26 265.085 131.35C266.168 131.561 267.251 131.109 268.319 130.845C268.477 130.807 268.635 130.77 268.793 130.807C268.973 130.853 269.116 130.988 269.266 131.109C269.838 131.554 270.635 131.682 271.319 131.441" stroke="#6E6E6E" stroke-width="0.5" stroke-miterlimit="10" stroke-linecap="round"/>
<path d="M251.165 139.807C251.331 137.855 251.496 135.903 251.662 133.95C246.563 133.536 241.48 132.986 236.426 132.496L235.885 138.254C235.952 138.118 236.027 137.975 236.095 137.84" fill="#919191"/>
<path d="M251.165 139.807C251.331 137.855 251.496 135.903 251.662 133.95C246.563 133.536 241.48 132.986 236.426 132.496L235.885 138.254C235.952 138.118 236.027 137.975 236.095 137.84" stroke="#6E6E6E" stroke-width="0.5" stroke-miterlimit="10" stroke-linecap="round"/>
<path d="M236.704 132.737C239.735 135.058 242.916 137.176 246.225 139.076" stroke="#6E6E6E" stroke-width="0.5" stroke-miterlimit="10" stroke-linecap="round"/>
<path d="M251.143 133.868C247.353 135.134 243.66 136.686 240.103 138.503" stroke="#6E6E6E" stroke-width="0.5" stroke-miterlimit="10" stroke-linecap="round"/>
<path d="M255.196 140.289C255.678 138.36 255.948 136.37 256.024 134.297C261.483 134.953 266.95 135.609 272.41 136.264C272.523 136.279 272.651 136.294 272.726 136.377C272.831 136.49 272.816 136.664 272.801 136.815C272.568 138.684 272.327 140.553 272.094 142.422" fill="#919191"/>
<path d="M255.196 140.289C255.678 138.36 255.948 136.37 256.024 134.297C261.483 134.953 266.95 135.609 272.41 136.264C272.523 136.279 272.651 136.294 272.726 136.377C272.831 136.49 272.816 136.664 272.801 136.815C272.568 138.684 272.327 140.553 272.094 142.422" stroke="#6E6E6E" stroke-width="0.5" stroke-miterlimit="10" stroke-linecap="round"/>
<path d="M271.981 136.92L263.792 138.993C262.468 139.324 261.122 139.671 259.926 140.327" stroke="#6E6E6E" stroke-width="0.5" stroke-miterlimit="10" stroke-linecap="round"/>
<path d="M256.723 134.561C261.205 136.558 265.469 139.03 269.439 141.925" stroke="#6E6E6E" stroke-width="0.5" stroke-miterlimit="10" stroke-linecap="round"/>
<path d="M135.19 85.479C128.173 76.7208 120.977 67.9174 111.922 61.2998C102.868 54.6821 91.6179 50.3709 80.5031 51.8029C74.1561 52.617 68.1926 55.2324 62.3796 57.908C48.52 64.2845 34.7656 71.2714 23.1019 81.115C10.7613 91.5238 2.70723 101.601 0.0676619 117.625C-0.240664 119.502 0.50383 122.102 2.39891 122.23C6.92603 122.532 7.00123 121.507 8.60303 120.889C10.077 120.323 10.829 119.811 14.183 116.163C18.0408 127.484 24.275 137.99 32.3592 146.794C33.4496 147.977 34.728 149.206 36.3298 149.296C37.6909 149.372 38.9393 148.595 40.0748 147.849C71.7873 127.137 103.191 105.942 135.19 85.4715V85.479Z" fill="#B22727"/>
<path d="M14.1831 116.163C15.1682 114.173 16.6797 111.61 18.9659 108.98C21.1768 106.44 23.4178 104.631 25.2076 103.395C23.9442 106.817 21.8912 113.841 23.1997 122.599C24.9218 134.131 31.4042 141.48 33.8934 144.035C32.9082 144.427 31.9306 144.819 30.9455 145.211C28.1555 142.015 25.1173 138.058 22.207 133.287C18.3718 126.986 15.8525 121.054 14.1755 116.155L14.1831 116.163Z" fill="#740600"/>
<path d="M157.758 111.754C156.148 99.0836 149.478 87.1372 139.544 79.1327C138.468 78.266 137.303 77.4218 135.942 77.158C134.475 76.8791 132.971 77.3163 131.55 77.7685C92.3399 90.1521 56.8223 114.037 30.5243 145.716C28.539 148.105 26.4935 150.932 26.9372 154.007C27.1328 155.364 27.8096 156.607 28.4939 157.798C33.9385 167.325 40.5337 176.189 48.0914 184.133C80.8341 157.059 114.321 129.534 153.915 114.181C155.855 113.427 157.87 112.681 157.75 111.761L157.758 111.754Z" fill="#9F2727"/>
<path d="M151.343 115.198C153.005 114.437 154.095 112.688 155.268 111.196C156.441 109.703 157.9 108.317 159.735 107.834C161.57 107.352 163.811 108.045 164.586 109.779C165.007 110.713 164.954 111.806 164.661 112.794C163.939 115.258 161.841 117.158 159.472 118.122C157.103 119.087 154.464 119.245 151.907 119.095C151.847 119.095 151.614 119.125 151.132 118.921C150.012 118.431 148.951 116.879 148.951 116.185C148.951 116.185 150.516 115.582 151.343 115.206V115.198Z" fill="#00505F"/>
<path d="M151.967 114.829C151.726 115.07 151.411 115.439 151.147 115.967C150.959 116.351 150.854 116.713 150.794 116.992C150.794 116.464 150.779 115.937 150.779 115.409C151.177 115.213 151.568 115.025 151.967 114.829Z" fill="#002B3F"/>
<path d="M32.3591 146.794C35.8786 151.188 39.4431 155.853 43.0302 160.79C46.2789 165.275 49.3246 169.669 52.1672 173.965" stroke="#740600" stroke-width="0.5" stroke-miterlimit="10" stroke-linecap="round"/>
<path d="M44.4741 137.689C48.2417 142.219 52.0319 146.914 55.8371 151.761C58.9053 155.665 61.8757 159.539 64.7484 163.376" stroke="#740600" stroke-width="0.5" stroke-miterlimit="10" stroke-linecap="round"/>
<path d="M54.1675 128.524C58.0404 131.32 62.6803 135.187 67.3127 140.357C71.7721 145.332 75.0133 150.17 77.337 154.203" stroke="#740600" stroke-width="0.5" stroke-miterlimit="10" stroke-linecap="round"/>
<path d="M68.373 117.248C72.3136 120.504 76.6828 124.559 81.0746 129.534C84.7294 133.672 87.7449 137.689 90.2115 141.367" stroke="#740600" stroke-width="0.5" stroke-miterlimit="10" stroke-linecap="round"/>
<path d="M81.2175 106.621C85.5416 110.412 90.3019 115.13 95.032 120.911C98.3334 124.951 101.108 128.878 103.425 132.526" stroke="#740600" stroke-width="0.5" stroke-miterlimit="10" stroke-linecap="round"/>
<path d="M97.0625 97.5083C100.462 101.578 103.883 105.746 107.312 110.012C111.298 114.972 115.163 119.886 118.901 124.755" stroke="#740600" stroke-width="0.5" stroke-miterlimit="10" stroke-linecap="round"/>
<path d="M112.05 90.6721C116.502 95.0738 121.413 100.681 126.09 107.646C128.647 111.452 130.775 115.138 132.55 118.59" stroke="#740600" stroke-width="0.5" stroke-miterlimit="10" stroke-linecap="round"/>
<path d="M126.805 84.861C130.625 87.6949 135.626 92.0816 140.176 98.4806C143.161 102.686 145.214 106.719 146.635 110.095" stroke="#740600" stroke-width="0.5" stroke-miterlimit="10" stroke-linecap="round"/>
</g>
<defs>
<clipPath id="clip0_269_2983">
<rect width="336" height="253" fill="white"/>
</clipPath>
</defs>
</svg>
